<?xml version="1.0" standalone="no"?>
<!DOCTYPE svg PUBLIC "-//W3C//DTD SVG 1.1//EN" "http://www.w3.org/Graphics/SVG/1.1/DTD/svg11.dtd" >
<svg xmlns="http://www.w3.org/2000/svg">
<metadata>
This is a custom SVG webfont generated by Font Squirrel.
Designer    : Yamaoka Yasuhiro
Foundry     : YOFonts
Foundry URL : www.yoworks.com
</metadata>
<defs>
<font id="webfontMQNm8GEE" horiz-adv-x="622" >
<font-face units-per-em="1000" ascent="800" descent="-200" />
<missing-glyph horiz-adv-x="259" />
<glyph unicode=" "  horiz-adv-x="259" />
<glyph unicode="&#x09;" horiz-adv-x="259" />
<glyph unicode="&#xa0;" horiz-adv-x="259" />
<glyph unicode="!" horiz-adv-x="333" d="M259 0h-185v174h185v-174zM274 741l-44 -534h-126l-45 534h215z" />
<glyph unicode="&#x22;" horiz-adv-x="556" d="M285 741l-126 -304h-94l35 304h185zM530 741l-126 -304h-94l34 304h186z" />
<glyph unicode="#" horiz-adv-x="630" d="M607 507h-116l-26 -127h94v-115h-117l-23 -117h-123l24 117h-83l-24 -117h-123l24 117h-92v115h116l26 127h-94v115h117l24 119h122l-24 -119h84l24 119h122l-25 -119h93v-115zM370 507h-84l-26 -127h84z" />
<glyph unicode="$" horiz-adv-x="546" d="M516 241q0 -81 -51 -138t-144 -73v-67h-111v63q-112 11 -184 81l101 100q44 -46 117 -46q39 0 65 21.5t26 48.5q0 28 -30.5 47t-74 33t-87 33.5t-74 61.5t-30.5 104q0 74 44.5 127.5t126.5 71.5v69h111v-62q120 -10 192 -82l-101 -101q-46 48 -105 48q-42 0 -65 -18 t-23 -39q0 -27 30.5 -45.5t74.5 -32.5t87.5 -34t74 -63.5t30.5 -107.5z" />
<glyph unicode="%" horiz-adv-x="933" d="M919 207q0 -95 -60.5 -154.5t-150.5 -59.5t-150 59.5t-60 154.5t60 155t150 60t150.5 -60t60.5 -155zM770 778l-481 -815h-126l481 815h126zM435 533q0 -95 -60 -154.5t-150 -59.5t-150 59.5t-60 154.5t60 155t150 60t150 -60t60 -155zM795 207q0 48 -24.5 78.5 t-62.5 30.5t-62.5 -30.5t-24.5 -78.5q0 -47 24.5 -77.5t62.5 -30.5t62.5 30.5t24.5 77.5zM312 533q0 48 -24.5 78.5t-62.5 30.5t-62.5 -30.5t-24.5 -78.5q0 -47 24.5 -78t62.5 -31t62.5 31t24.5 78z" />
<glyph unicode="&#x26;" horiz-adv-x="770" d="M827 0h-234l-50 50q-78 -65 -204 -65q-134 0 -216 58t-82 149q0 134 143 216q-48 47 -67 84.5t-19 85.5q0 63 62 120.5t164 57.5t164 -57.5t62 -120.5q0 -103 -115 -185l95 -94q12 41 12 108h178q0 -131 -57 -243zM376 570q0 20 -15 34.5t-37 14.5t-37 -14.5t-15 -34.5 q0 -19 10.5 -35t38.5 -43q55 42 55 78zM432 160l-143 143q-58 -38 -58 -96q0 -35 30.5 -60t75.5 -25q59 0 95 38z" />
<glyph unicode="'" horiz-adv-x="319" d="M293 741l-126 -304h-94l34 304h186z" />
<glyph unicode="(" horiz-adv-x="407" d="M396 -11l-166 -56q-68 101 -106.5 205.5t-38.5 231.5q0 128 38.5 232.5t106.5 204.5l166 -55q-123 -177 -123 -382q0 -206 123 -381z" />
<glyph unicode=")" horiz-adv-x="407" d="M322 370q0 -223 -144 -437l-166 56q122 174 122 381q0 206 -122 382l166 55q144 -212 144 -437z" />
<glyph unicode="*" horiz-adv-x="422" d="M413 560l-126 -41l78 -109l-75 -54l-79 108l-78 -108l-76 54l79 109l-127 41l29 89l126 -42v134h94v-134l126 42z" />
<glyph unicode="+" horiz-adv-x="570" d="M533 304h-189v-189h-118v189h-189v118h189v189h118v-189h189v-118z" />
<glyph unicode="," horiz-adv-x="319" d="M267 174l-126 -304h-94l34 304h186z" />
<glyph unicode="-" horiz-adv-x="359" d="M315 219h-271v118h271v-118z" />
<glyph unicode="." horiz-adv-x="319" d="M252 0h-185v174h185v-174z" />
<glyph unicode="/" horiz-adv-x="356" d="M337 778l-204 -815h-114l203 815h115z" />
<glyph unicode="0" horiz-adv-x="681" d="M633 370q0 -177 -76.5 -279t-215.5 -102t-216 102t-77 279q0 178 77 280t216 102t215.5 -102.5t76.5 -279.5zM444 370q0 128 -23.5 182.5t-79.5 54.5t-80 -54.5t-24 -182.5q0 -127 24 -182t80 -55q55 0 79 54.5t24 182.5z" />
<glyph unicode="1" horiz-adv-x="467" d="M363 0h-178v563q-21 -21 -66 -41t-93 -26v154q44 6 95.5 34.5t78.5 56.5h163v-741z" />
<glyph unicode="2" horiz-adv-x="600" d="M566 0h-525v119q170 135 245 227t75 183q0 32 -26.5 53.5t-69.5 21.5q-57 0 -110 -53l-112 112q93 93 237 93q120 0 191.5 -61.5t71.5 -160.5q0 -98 -63.5 -198.5t-166.5 -179.5h253v-156z" />
<glyph unicode="3" horiz-adv-x="570" d="M533 209q0 -99 -82.5 -161.5t-206.5 -62.5q-146 0 -237 93l112 112q51 -53 118 -53q45 0 76 22.5t31 56.5q0 35 -31 58t-76 23h-59v156h59q53 0 78.5 21t25.5 55q0 32 -27 53.5t-70 21.5q-57 0 -110 -53l-112 112q93 93 222 93q113 0 192 -63t79 -159q0 -54 -29 -98 t-68 -60q43 -17 79 -64.5t36 -102.5z" />
<glyph unicode="4" horiz-adv-x="667" d="M635 148h-103v-148h-178v148h-317v167l302 426h193v-437h103v-156zM354 304v218l-153 -218h153z" />
<glyph unicode="5" horiz-adv-x="600" d="M561 238q0 -111 -78 -182t-202 -71q-152 0 -245 93l112 112q53 -53 126 -53q50 0 81.5 28.5t31.5 72.5q0 46 -31.5 75t-81.5 29q-28 0 -60 -21l-136 69v351h435v-156h-257v-115q26 12 72 12q99 0 166 -68.5t67 -175.5z" />
<glyph unicode="6" horiz-adv-x="652" d="M613 236q0 -108 -80 -177.5t-192 -69.5q-139 0 -216 102t-77 279q0 176 87 279t239 103q140 0 229 -89l-112 -112q-47 49 -121 49q-58 0 -97.5 -46.5t-43.5 -128.5q15 23 51.5 39.5t75.5 16.5q110 0 183.5 -68t73.5 -177zM439 236q0 44 -27.5 74.5t-70.5 30.5 q-44 0 -71.5 -30.5t-27.5 -74.5q0 -45 27.5 -75.5t71.5 -30.5q43 0 70.5 30.5t27.5 75.5z" />
<glyph unicode="7" horiz-adv-x="593" d="M559 622q-102 -159 -157 -289t-94 -333h-204q44 204 95.5 332t130.5 253h-304v156h533v-119z" />
<glyph unicode="8" horiz-adv-x="652" d="M615 209q0 -99 -82.5 -161.5t-206.5 -62.5t-206.5 62.5t-82.5 161.5q0 56 36 103.5t80 63.5q-39 16 -68 60t-29 98q0 96 78.5 159t191.5 63t191.5 -63t78.5 -159q0 -54 -29 -98t-68 -60q44 -16 80 -63.5t36 -103.5zM422 529q0 36 -27 63t-69 27t-69 -27t-27 -63 q0 -35 27 -62t69 -27t69 27t27 62zM426 216q0 41 -28 68t-72 27t-72 -27t-28 -68q0 -40 28 -67t72 -27t72 27t28 67z" />
<glyph unicode="9" horiz-adv-x="652" d="M604 370q0 -176 -87 -278.5t-239 -102.5q-140 0 -229 89l112 112q47 -49 120 -49q58 0 98 46.5t44 128.5q-15 -24 -51.5 -40.5t-75.5 -16.5q-110 0 -183.5 68.5t-73.5 177.5q0 108 79.5 177.5t192.5 69.5q139 0 216 -102t77 -280zM410 505q0 45 -27.5 75.5t-71.5 30.5 q-43 0 -70.5 -30.5t-27.5 -75.5q0 -44 27.5 -74.5t70.5 -30.5q44 0 71.5 30.5t27.5 74.5z" />
<glyph unicode=":" horiz-adv-x="319" d="M252 0h-185v174h185v-174zM252 359h-185v174h185v-174z" />
<glyph unicode=";" horiz-adv-x="319" d="M252 359h-185v174h185v-174zM267 174l-126 -304h-94l34 304h186z" />
<glyph unicode="&#x3c;" horiz-adv-x="363" d="M327 89h-171l-104 207l104 208h171l-103 -208z" />
<glyph unicode="=" horiz-adv-x="570" d="M533 396h-496v119h496v-119zM533 211h-496v119h496v-119z" />
<glyph unicode="&#x3e;" horiz-adv-x="363" d="M311 296l-104 -207h-171l103 207l-103 208h171z" />
<glyph unicode="?" horiz-adv-x="548" d="M337 0h-185v174h185v-174zM519 533q0 -44 -19.5 -82t-47.5 -66l-56 -54q-27 -26 -46.5 -58t-19.5 -66h-171q0 56 16.5 99t40 69t47 47.5t40 47.5t16.5 56q0 31 -23 54.5t-59 23.5q-58 0 -110 -53l-112 112q94 93 233 93q124 0 197.5 -64t73.5 -159z" />
<glyph unicode="@" horiz-adv-x="844" d="M808 378q-8 -92 -69 -156t-137 -64q-44 0 -72 27q-25 24 -24 55v9q-21 -43 -64.5 -68t-97.5 -25q-67 0 -112 64q-33 48 -33 107q0 19 3 39q16 94 79.5 152.5t137.5 58.5q30 0 58 -15t39 -39l8 45h135l-48 -272q-3 -20 2.5 -30t13.5 -10q27 0 57 40.5t34 96.5q1 13 1 25 q0 104 -69 171q-77 75 -197 75q-128 0 -214.5 -87.5t-95.5 -213.5q-1 -11 -1 -22q0 -101 68 -175q75 -83 196 -83q115 0 203 73l67 -75q-120 -96 -286 -96q-165 0 -264 114q-88 103 -88 249q0 16 1 33q4 72 36.5 139.5t85 120t127.5 84t159 31.5q173 0 275 -107 q88 -93 88 -230q0 -20 -2 -41zM489 366q3 18 3 32q0 27 -10 44q-17 25 -49 25q-31 0 -56 -25.5t-34 -75.5q-3 -18 -3 -33q0 -26 10 -43q16 -25 47 -25q32 0 57.5 25.5t34.5 75.5z" />
<glyph unicode="A" horiz-adv-x="756" d="M759 0h-203l-52 152h-253l-51 -152h-204l278 741h207zM453 307l-75 223l-75 -223h150z" />
<glyph unicode="B" horiz-adv-x="681" d="M637 185q0 -74 -60 -129.5t-158 -55.5h-338v741h326q91 0 157 -54.5t66 -130.5q0 -69 -38.5 -120.5t-106.5 -66.5q69 -13 110.5 -61t41.5 -123zM433 516q0 28 -23.5 48.5t-61.5 20.5h-74v-138h74q38 0 61.5 20t23.5 49zM441 224q0 28 -24 47.5t-61 19.5h-82v-135h82 q37 0 61 20t24 48z" />
<glyph unicode="C" horiz-adv-x="656" d="M647 78q-87 -89 -240 -89q-165 0 -265.5 102.5t-100.5 278.5t100.5 279t265.5 103q153 0 240 -89l-111 -112q-45 45 -121 45q-75 0 -124.5 -59t-49.5 -167q0 -107 49.5 -166.5t124.5 -59.5t121 46z" />
<glyph unicode="D" horiz-adv-x="752" d="M711 370q0 -177 -104.5 -273.5t-280.5 -96.5h-245v741h245q176 0 280.5 -97t104.5 -274zM511 370q0 100 -51.5 157.5t-140.5 57.5h-45v-429h45q89 0 140.5 57.5t51.5 156.5z" />
<glyph unicode="E" horiz-adv-x="567" d="M515 0h-434v741h426v-156h-233v-138h226v-156h-226v-135h241v-156z" />
<glyph unicode="F" horiz-adv-x="537" d="M515 585h-241v-138h233v-156h-233v-291h-193v741h434v-156z" />
<glyph unicode="G" horiz-adv-x="726" d="M678 44q-39 -24 -109.5 -39.5t-149.5 -15.5q-171 0 -274.5 102.5t-103.5 278.5t103.5 279t274.5 103q74 0 143 -23.5t111 -65.5l-112 -112q-44 45 -131 45q-82 0 -135.5 -59t-53.5 -167t53 -165t136 -57q31 0 55 8v117h-100v155h293v-384z" />
<glyph unicode="H" horiz-adv-x="756" d="M674 0h-193v291h-207v-291h-193v741h193v-294h207v294h193v-741z" />
<glyph unicode="I" horiz-adv-x="356" d="M274 0h-193v741h193v-741z" />
<glyph unicode="J" horiz-adv-x="570" d="M489 241q0 -113 -76.5 -184.5t-205.5 -71.5q-68 0 -116 23t-95 70l112 112q41 -49 99 -49q42 0 65.5 26.5t23.5 73.5v500h193v-500z" />
<glyph unicode="K" horiz-adv-x="722" d="M748 0h-243l-231 344v-344h-193v741h193v-330l222 330h241l-270 -363z" />
<glyph unicode="L" horiz-adv-x="515" d="M515 0h-434v741h193v-585h241v-156z" />
<glyph unicode="M" horiz-adv-x="1000" d="M919 0h-193v517l-111 -517h-230l-111 517v-517h-193v741h307l113 -535l111 535h307v-741z" />
<glyph unicode="N" horiz-adv-x="785" d="M704 0h-248l-182 456v-456h-193v741h249l181 -456v455h193v-740z" />
<glyph unicode="O" horiz-adv-x="785" d="M744 370q0 -176 -95.5 -278.5t-255.5 -102.5t-256 102.5t-96 278.5q0 177 96 279.5t256 102.5q159 0 255 -103t96 -279zM544 370q0 108 -42.5 167t-108.5 59q-71 0 -111.5 -58t-40.5 -168q0 -109 40.5 -167.5t111.5 -58.5q66 0 108.5 59.5t42.5 166.5z" />
<glyph unicode="P" horiz-adv-x="648" d="M633 508q0 -96 -73 -164t-182 -68h-104v-276h-193v741h297q109 0 182 -68.5t73 -164.5zM437 508q0 32 -23.5 54.5t-61.5 22.5h-78v-153h78q38 0 61.5 22t23.5 54z" />
<glyph unicode="Q" horiz-adv-x="785" d="M796 93l-129 -130l-118 59q-69 -33 -156 -33q-160 0 -256 102.5t-96 278.5q0 177 96 279.5t256 102.5q159 0 255 -103t96 -279q0 -132 -58 -223zM544 370q0 108 -42.5 167t-108.5 59q-71 0 -111.5 -58t-40.5 -168q0 -109 40.5 -167.5t111.5 -58.5q66 0 108.5 59.5 t42.5 166.5z" />
<glyph unicode="R" horiz-adv-x="681" d="M661 0h-204l-39 199q-9 44 -29 60.5t-64 16.5h-51v-276h-193v741h297q122 0 188.5 -61.5t66.5 -152.5q0 -58 -35 -109t-94 -68q47 -10 71 -39t35 -78zM437 508q0 31 -23.5 54t-61.5 23h-78v-153h78q38 0 61.5 22t23.5 54z" />
<glyph unicode="S" horiz-adv-x="593" d="M567 226q0 -106 -78 -173.5t-217 -67.5q-155 0 -250 93l112 112q51 -53 130 -53q43 0 72.5 24t29.5 54q0 27 -24.5 46.5t-61 30.5t-79 29t-79 39.5t-61 64.5t-24.5 101q0 100 74 165t205 65q154 0 247 -93l-112 -112q-51 53 -117 53q-46 0 -71.5 -19.5t-25.5 -43.5 q0 -30 34 -50.5t82.5 -36t97 -38t82.5 -70.5t34 -120z" />
<glyph unicode="T" horiz-adv-x="600" d="M600 585h-204v-585h-192v585h-204v156h600v-156z" />
<glyph unicode="U" horiz-adv-x="763" d="M681 259q0 -125 -80.5 -199.5t-219.5 -74.5q-138 0 -219 74.5t-81 199.5v482h193v-482q0 -56 30.5 -87t76.5 -31q47 0 77.5 31t30.5 87v482h192v-482z" />
<glyph unicode="V" horiz-adv-x="741" d="M744 741l-277 -741h-193l-278 741h204l170 -508l171 508h203z" />
<glyph unicode="W" horiz-adv-x="970" d="M985 741l-166 -741h-243l-91 488l-89 -488h-243l-168 741h216l84 -495l90 495h221l89 -495l99 495h201z" />
<glyph unicode="X" horiz-adv-x="719" d="M722 0h-244l-119 241l-118 -241h-245l231 382l-216 359h245l103 -217l103 217h245l-216 -359z" />
<glyph unicode="Y" horiz-adv-x="674" d="M700 741l-267 -441v-300h-192v300l-267 441h245l118 -241l119 241h244z" />
<glyph unicode="Z" horiz-adv-x="585" d="M556 0h-526v141l281 444h-274v156h511v-141l-281 -444h289v-156z" />
<glyph unicode="[" horiz-adv-x="444" d="M393 -37h-304v815h304v-130h-141v-555h141v-130z" />
<glyph unicode="\" horiz-adv-x="356" d="M337 -37h-115l-203 815h114z" />
<glyph unicode="]" horiz-adv-x="444" d="M356 -37h-304v130h141v555h-141v130h304v-815z" />
<glyph unicode="^" horiz-adv-x="333" d="M321 585h-111l-43 87l-44 -87h-111l86 171h138z" />
<glyph unicode="_" horiz-adv-x="444" d="M444 0h-444v104h444v-104z" />
<glyph unicode="`" horiz-adv-x="333" d="M293 585h-83l-169 171h195z" />
<glyph unicode="a" d="M548 0h-170v74q-47 -85 -156 -85q-81 0 -133 47t-52 112q0 78 67.5 126t191.5 48h74q0 39 -29.5 66t-73.5 27q-53 0 -102 -39l-98 99q98 73 226 73q119 0 187 -61.5t68 -156.5v-330zM370 226h-74q-37 0 -59 -17t-22 -42q0 -22 16 -39t48 -17q43 0 67 34.5t24 80.5z" />
<glyph unicode="b" horiz-adv-x="667" d="M630 267q0 -124 -69.5 -201t-167.5 -77q-47 0 -91 25t-58 59v-73h-170v741h178v-267q19 30 60 50t81 20q98 0 167.5 -76.5t69.5 -200.5zM444 267q0 66 -27 99.5t-69 33.5t-69 -33.5t-27 -99.5t27 -100t69 -34t69 34t27 100z" />
<glyph unicode="c" horiz-adv-x="544" d="M521 59q-90 -70 -199 -70q-120 0 -202.5 76.5t-82.5 201.5q0 124 82.5 200.5t202.5 76.5q108 0 199 -69l-106 -107q-32 32 -82 32q-46 0 -78.5 -37t-32.5 -96q0 -60 32.5 -97t78.5 -37q50 0 82 32z" />
<glyph unicode="d" horiz-adv-x="667" d="M593 0h-171v73q-14 -33 -58 -58.5t-90 -25.5q-98 0 -167.5 77t-69.5 201t69.5 200.5t167.5 76.5q40 0 81 -20t60 -50v267h178v-741zM415 267q0 65 -27.5 99t-68.5 34q-42 0 -69.5 -34t-27.5 -99q0 -66 27.5 -100t69.5 -34q41 0 68.5 34t27.5 100z" />
<glyph unicode="e" horiz-adv-x="593" d="M570 222h-343q10 -47 42.5 -73.5t74.5 -26.5q57 0 93 36l99 -99q-90 -70 -206 -70q-128 0 -210.5 76t-82.5 202q0 127 73.5 202t196.5 75q122 0 192.5 -74t70.5 -203v-45zM393 333q-9 43 -28 64.5t-54 21.5q-65 0 -83 -86h165z" />
<glyph unicode="f" horiz-adv-x="444" d="M426 596q-33 15 -71 15q-62 0 -62 -55v-23h126v-137h-126v-396h-178v396h-100v137h100v45q0 73 52 121.5t137 48.5q62 0 122 -15v-137z" />
<glyph unicode="g" horiz-adv-x="667" d="M593 59q0 -107 -86 -181t-218 -74q-145 0 -222 77l96 96q44 -40 115 -40q61 0 99 34t38 88v15q-19 -30 -60 -50t-81 -20q-98 0 -167.5 75.5t-69.5 194.5t69.5 194.5t167.5 75.5q46 0 90 -25t58 -58v72h171v-474zM415 274q0 61 -27.5 93.5t-68.5 32.5q-42 0 -69.5 -32.5 t-27.5 -93.5t27.5 -93.5t69.5 -32.5q41 0 68.5 32.5t27.5 93.5z" />
<glyph unicode="h" horiz-adv-x="681" d="M607 0h-177v289q0 111 -86 111q-41 0 -66.5 -32t-25.5 -101v-267h-178v741h178v-271q21 34 61 54t94 20q87 0 143.5 -59.5t56.5 -158.5v-326z" />
<glyph unicode="i" horiz-adv-x="326" d="M252 578h-178v163h178v-163zM252 0h-178v533h178v-533z" />
<glyph unicode="j" horiz-adv-x="341" d="M267 578h-178v163h178v-163zM267 -22q0 -74 -52 -122.5t-137 -48.5q-64 0 -122 15v137q33 -15 71 -15q62 0 62 56v533h178v-555z" />
<glyph unicode="k" horiz-adv-x="630" d="M651 0h-210l-189 241v-241h-178v741h178v-434l178 226h207l-215 -259z" />
<glyph unicode="l" horiz-adv-x="326" d="M252 0h-178v741h178v-741z" />
<glyph unicode="m" horiz-adv-x="978" d="M904 0h-178v289q0 111 -74 111q-30 0 -52 -33t-22 -89v-278h-178v289q0 111 -74 111q-30 0 -52 -33t-22 -89v-278h-178v533h170v-78q37 89 141 89q116 0 168 -103q48 103 158 103q84 0 138.5 -59.5t54.5 -154.5v-330z" />
<glyph unicode="n" horiz-adv-x="681" d="M607 0h-177v289q0 111 -86 111q-41 0 -66.5 -32t-25.5 -101v-267h-178v533h170v-75q21 39 64 62.5t99 23.5q87 0 143.5 -59.5t56.5 -158.5v-326z" />
<glyph unicode="o" d="M585 267q0 -127 -75.5 -202.5t-198.5 -75.5t-198.5 75.5t-75.5 202.5t75.5 202t198.5 75t198.5 -75t75.5 -202zM400 267q0 66 -24 99.5t-65 33.5t-65 -33.5t-24 -99.5q0 -67 24 -100.5t65 -33.5t65 33.5t24 100.5z" />
<glyph unicode="p" horiz-adv-x="667" d="M630 267q0 -124 -69.5 -201t-167.5 -77q-39 0 -80.5 20t-60.5 50v-244h-178v718h170v-72q15 33 59 58t90 25q98 0 167.5 -76.5t69.5 -200.5zM444 267q0 66 -27 99.5t-69 33.5t-69 -33.5t-27 -99.5t27 -100t69 -34t69 34t27 100z" />
<glyph unicode="q" horiz-adv-x="667" d="M593 -185h-178v244q-19 -30 -60.5 -50t-80.5 -20q-98 0 -167.5 77t-69.5 201t69.5 200.5t167.5 76.5q46 0 90 -25t58 -58v72h171v-718zM415 267q0 65 -27.5 99t-68.5 34q-42 0 -69.5 -34t-27.5 -99q0 -66 27.5 -100t69.5 -34q41 0 68.5 34t27.5 100z" />
<glyph unicode="r" horiz-adv-x="444" d="M433 385q-37 11 -77 11q-49 0 -76.5 -35t-27.5 -98v-263h-178v533h170v-81q40 92 189 92v-159z" />
<glyph unicode="s" horiz-adv-x="474" d="M446 475l-99 -99q-39 39 -86 39q-23 0 -36 -10.5t-13 -23.5q0 -12 17.5 -22.5t43 -17.5t56 -21t56 -32t43 -51.5t17.5 -78.5q0 -69 -60 -121t-174 -52q-118 0 -192 74l99 99q39 -39 93 -39q31 0 48 9.5t17 23.5q0 18 -17.5 31.5t-43.5 22t-56.5 22t-56.5 30.5t-43.5 48.5 t-17.5 74.5q0 64 60.5 115.5t154.5 51.5q117 0 190 -73z" />
<glyph unicode="t" horiz-adv-x="444" d="M426 7q-63 -14 -122 -14q-85 0 -137 48.5t-52 121.5v233h-100v137h100v152h178v-152h126v-137h-126v-211q0 -55 62 -55q36 0 71 14v-137z" />
<glyph unicode="u" horiz-adv-x="681" d="M607 0h-170v76q-21 -40 -63.5 -63.5t-99.5 -23.5q-87 0 -143.5 59.5t-56.5 158.5v326h178v-289q0 -111 85 -111q42 0 67.5 32.5t25.5 101.5v266h177v-533z" />
<glyph unicode="v" horiz-adv-x="588" d="M596 533l-208 -533h-188l-207 533h192l107 -347l111 347h193z" />
<glyph unicode="w" horiz-adv-x="836" d="M844 533l-146 -533h-211l-69 269l-70 -269h-210l-145 533h197l64 -345l90 345h151l86 -345l66 345h197z" />
<glyph unicode="x" horiz-adv-x="563" d="M563 0h-206l-76 144l-75 -144h-206l177 275l-170 258h212l62 -124l63 124h212l-170 -258z" />
<glyph unicode="y" horiz-adv-x="588" d="M596 533l-243 -623q-16 -42 -61.5 -72.5t-112.5 -30.5q-63 0 -123 15v137q33 -15 71 -15q32 0 47.5 12.5t25.5 43.5l-207 533h192l107 -347l111 347h193z" />
<glyph unicode="z" horiz-adv-x="489" d="M459 0h-429v119l207 277h-200v137h415v-122l-208 -273h215v-138z" />
<glyph unicode="{" horiz-adv-x="437" d="M410 -44h-143q-49 0 -84 34.5t-35 83.5v141q0 34 -23.5 57.5t-57.5 23.5h-30v148h30q33 0 57 24t24 58v141q0 49 35 83.5t84 34.5h143v-126h-51q-20 0 -34 -14t-14 -34v-122q0 -45 -30.5 -79t-73.5 -40q43 -5 73.5 -39t30.5 -79v-122q0 -20 14 -34.5t34 -14.5h51v-125z " />
<glyph unicode="|" horiz-adv-x="333" d="M222 -185h-111v926h111v-926z" />
<glyph unicode="}" horiz-adv-x="437" d="M400 296h-30q-34 0 -57.5 -23.5t-23.5 -57.5v-141q0 -49 -35 -83.5t-84 -34.5h-143v125h51q20 0 34 14.5t14 34.5v122q0 45 30.5 79t73.5 39q-43 6 -73.5 40t-30.5 79v122q0 20 -14 34t-34 14h-51v126h143q49 0 84 -34.5t35 -83.5v-141q0 -34 24 -58t57 -24h30v-148z" />
<glyph unicode="~" horiz-adv-x="438" d="M416 314l-40 -40q-38 -38 -94 -38q-55 0 -94 39l-14 14q-9 7 -18 7q-12 0 -21 -9l-37 -37l-76 75l40 40q39 37 94 37q56 0 94 -38l14 -14q6 -7 18 -7q10 0 21 9l37 37z" />
<glyph unicode="&#xa1;" horiz-adv-x="333" d="M259 567h-185v174h185v-174zM274 0h-215l45 533h126z" />
<glyph unicode="&#xa2;" horiz-adv-x="526" d="M510 162q-83 -63 -176 -69v-93h-78v97q-101 18 -165.5 91t-64.5 182t64.5 182.5t165.5 90.5v98h78v-94q91 -4 176 -68l-106 -107q-28 28 -70 31v-266q43 5 70 32zM256 262v217q-45 -38 -45 -109q0 -70 45 -108z" />
<glyph unicode="&#xa3;" horiz-adv-x="624" d="M576 0h-539v156h63v151h-63v78h63v93q0 113 80.5 193.5t193.5 80.5t194 -81l-130 -130q-26 26 -64 26q-37 0 -63 -26t-26 -63v-93h104v-78h-104v-151h291v-156z" />
<glyph unicode="&#xa5;" horiz-adv-x="674" d="M700 741l-221 -365h122v-78h-168v-37h168v-78h-168v-183h-192v183h-168v78h168v37h-168v78h122l-221 365h245l118 -241l119 241h244z" />
<glyph unicode="&#xa6;" horiz-adv-x="333" d="M222 426h-111v352h111v-352zM222 -37h-111v352h111v-352z" />
<glyph unicode="&#xa7;" horiz-adv-x="516" d="M472 679l-99 -100q-40 40 -86 40q-23 0 -36 -11t-13 -23t17.5 -22.5t43 -17.5t56 -21t56 -32t43 -52t17.5 -79q0 -65 -53 -114q31 -38 31 -95q0 -64 -60 -115.5t-155 -51.5q-116 0 -190 74l99 99q41 -39 86 -39q23 0 36.5 10.5t13.5 22.5t-17.5 22.5t-43.5 17.5t-56 21 t-56 32t-43.5 52t-17.5 79q0 65 53 114q-31 38 -31 95q0 64 60.5 115.5t154.5 51.5q117 0 190 -73zM301 356q0 18 -15 29t-45 24q-26 -9 -26 -28q0 -18 15 -29.5t46 -23.5q25 9 25 28z" />
<glyph unicode="&#xa8;" horiz-adv-x="326" d="M337 578h-144v163h144v-163zM133 578h-144v163h144v-163z" />
<glyph unicode="&#xa9;" horiz-adv-x="867" d="M804 370q0 -153 -108.5 -261.5t-262.5 -108.5q-153 0 -261.5 108.5t-108.5 261.5q0 154 108.5 262.5t261.5 108.5q154 0 262.5 -108.5t108.5 -262.5zM722 370q0 120 -84.5 204.5t-204.5 84.5q-119 0 -204 -84.5t-85 -204.5q0 -119 85 -204t204 -85q120 0 204.5 85 t84.5 204zM578 204q-51 -51 -137 -51q-95 0 -152 58.5t-57 158.5t57 159t152 59q86 0 137 -51l-64 -64q-25 26 -69 26q-43 0 -71 -34t-28 -95t28 -94.5t71 -33.5q44 0 69 25z" />
<glyph unicode="&#xaa;" horiz-adv-x="448" d="M389 370h-119v52q-32 -59 -108 -59q-56 0 -92.5 32.5t-36.5 77.5q0 54 47 87.5t133 33.5h52q0 27 -20.5 46t-51.5 19q-36 0 -71 -27l-68 69q67 50 157 50q83 0 130.5 -43t47.5 -109v-229zM265 527h-52q-26 0 -41 -12t-15 -29q0 -16 11 -27.5t33 -11.5q30 0 47 24t17 56z " />
<glyph unicode="&#xab;" horiz-adv-x="604" d="M327 89h-171l-104 207l104 208h171l-103 -208zM569 89h-172l-104 207l104 208h172l-104 -208z" />
<glyph unicode="&#xad;" horiz-adv-x="359" d="M315 219h-271v118h271v-118z" />
<glyph unicode="&#xae;" horiz-adv-x="867" d="M804 370q0 -153 -108.5 -261.5t-262.5 -108.5q-153 0 -261.5 108.5t-108.5 261.5q0 154 108.5 262.5t261.5 108.5q154 0 262.5 -108.5t108.5 -262.5zM722 370q0 120 -84.5 204.5t-204.5 84.5q-119 0 -204 -84.5t-85 -204.5q0 -119 85 -204t204 -85q120 0 204.5 85 t84.5 204zM606 159h-116l-22 114q-5 25 -16.5 34.5t-36.5 9.5h-29v-158h-110v422h169q70 0 108 -35t38 -87q0 -32 -20 -61.5t-54 -38.5q48 -10 60 -67zM386 493v-88h44q22 0 35.5 12.5t13.5 31.5q0 18 -13.5 31t-35.5 13h-44z" />
<glyph unicode="&#xaf;" horiz-adv-x="333" d="M296 630h-259v111h259v-111z" />
<glyph unicode="&#xb0;" horiz-adv-x="400" d="M363 589q0 -67 -47.5 -115t-115.5 -48t-115.5 48t-47.5 115t47.5 115t115.5 48t115.5 -48t47.5 -115zM259 589q0 25 -17 42t-42 17t-42 -17t-17 -42t17 -42t42 -17t42 17t17 42z" />
<glyph unicode="&#xb1;" horiz-adv-x="570" d="M533 374h-189v-189h-118v189h-189v119h189v188h118v-188h189v-119zM533 48h-496v119h496v-119z" />
<glyph unicode="&#xb2;" horiz-adv-x="413" d="M380 247h-350v79q113 90 163 151.5t50 121.5q0 22 -17.5 36.5t-46.5 14.5q-37 0 -73 -36l-75 75q63 61 158 61q80 0 127.5 -41t47.5 -106q0 -66 -42 -133t-111 -120h169v-103z" />
<glyph unicode="&#xb3;" horiz-adv-x="407" d="M373 386q0 -65 -55 -107t-137 -42q-97 0 -159 62l75 74q35 -35 79 -35q30 0 50.5 15t20.5 38t-20.5 38.5t-50.5 15.5h-40v104h40q35 0 52 14t17 36t-17.5 36.5t-46.5 14.5q-38 0 -74 -36l-74 75q61 61 148 61q75 0 127.5 -41.5t52.5 -105.5q0 -36 -19.5 -65.5 t-45.5 -39.5q29 -12 53 -43.5t24 -68.5z" />
<glyph unicode="&#xb4;" horiz-adv-x="333" d="M293 756l-170 -171h-82l57 171h195z" />
<glyph unicode="&#xb5;" horiz-adv-x="681" d="M607 0h-170v76q-21 -40 -63.5 -63.5t-99.5 -23.5q-4 0 -11 0.5t-11 0.5v-175h-178v718h178v-289q0 -111 85 -111q42 0 67.5 32.5t25.5 101.5v266h177v-533z" />
<glyph unicode="&#x3bc;" horiz-adv-x="681" d="M607 0h-170v76q-21 -40 -63.5 -63.5t-99.5 -23.5q-4 0 -11 0.5t-11 0.5v-175h-178v718h178v-289q0 -111 85 -111q42 0 67.5 32.5t25.5 101.5v266h177v-533z" />
<glyph unicode="&#xb6;" horiz-adv-x="726" d="M659 -185h-178v789h-70v-789h-178v518q-84 0 -143.5 60t-59.5 144t59.5 144t143.5 60h426v-926z" />
<glyph unicode="&#xb7;" horiz-adv-x="319" d="M252 209h-185v174h185v-174z" />
<glyph unicode="&#xb8;" horiz-adv-x="348" d="M289 -98q0 -37 -37.5 -64t-96.5 -27q-62 0 -103 41l44 44q22 -22 52 -22q33 0 33 22q0 24 -73 24l40 80h86l-15 -31q29 -3 49.5 -21.5t20.5 -45.5z" />
<glyph unicode="&#xb9;" horiz-adv-x="337" d="M247 247h-119v375q-34 -34 -106 -44v102q29 4 63 23t54 38h108v-494z" />
<glyph unicode="&#xba;" horiz-adv-x="440" d="M410 556q0 -88 -52 -140.5t-138 -52.5t-138 52.5t-52 140.5t52.5 140t137.5 52t137.5 -52t52.5 -140zM282 556q0 46 -17 69t-45 23t-45 -23t-17 -69q0 -93 62 -93t62 93z" />
<glyph unicode="&#xbb;" horiz-adv-x="604" d="M311 296l-104 -207h-171l103 207l-103 208h171zM553 296l-104 -207h-172l104 207l-104 208h172z" />
<glyph unicode="&#xbc;" horiz-adv-x="884" d="M247 247h-119v375q-34 -34 -106 -44v102q29 4 63 23t54 38h108v-494zM861 99h-68v-99h-119v99h-211v111l201 284h129v-292h68v-103zM716 778l-482 -815h-118l481 815h119zM674 202v146l-101 -146h101z" />
<glyph unicode="&#xbd;" horiz-adv-x="937" d="M247 247h-119v375q-34 -34 -106 -44v102q29 4 63 23t54 38h108v-494zM904 0h-351v79q113 90 163.5 151.5t50.5 122.5q0 21 -18 35.5t-46 14.5q-38 0 -74 -36l-74 75q60 62 158 62q79 0 127 -41.5t48 -106.5t-42 -132.5t-111 -119.5h169v-104zM716 778l-482 -815h-118 l481 815h119z" />
<glyph unicode="&#xbe;" horiz-adv-x="953" d="M373 386q0 -65 -55 -107t-137 -42q-97 0 -159 62l75 74q35 -35 79 -35q30 0 50.5 15t20.5 38t-20.5 38.5t-50.5 15.5h-40v104h40q35 0 52 14t17 36t-17.5 36.5t-46.5 14.5q-38 0 -74 -36l-74 75q61 61 148 61q75 0 127.5 -41.5t52.5 -105.5q0 -36 -19.5 -65.5 t-45.5 -39.5q29 -12 53 -43.5t24 -68.5zM930 99h-68v-99h-119v99h-211v111l201 284h129v-292h68v-103zM784 778l-481 -815h-119l482 815h118zM743 202v146l-102 -146h102z" />
<glyph unicode="&#xbf;" horiz-adv-x="548" d="M396 567h-185v174h185v-174zM533 78q-94 -93 -233 -93q-124 0 -197 64t-73 158q0 44 19.5 82.5t47.5 66.5l55 54q28 26 47.5 57.5t19.5 65.5h170q0 -55 -16.5 -98t-39.5 -69t-46.5 -47.5t-40 -47.5t-16.5 -56q0 -31 22.5 -54.5t58.5 -23.5q60 0 110 53z" />
<glyph unicode="&#xc0;" horiz-adv-x="756" d="M759 0h-203l-52 152h-253l-51 -152h-204l278 741h207zM453 307l-75 223l-75 -223h150zM460 793h-82l-170 170h195z" />
<glyph unicode="&#xc1;" horiz-adv-x="756" d="M759 0h-203l-52 152h-253l-51 -152h-204l278 741h207zM453 307l-75 223l-75 -223h150zM547 948l-169 -170h-82l57 170h194z" />
<glyph unicode="&#xc2;" horiz-adv-x="756" d="M759 0h-203l-52 152h-253l-51 -152h-204l278 741h207zM453 307l-75 223l-75 -223h150zM533 778h-112l-43 86l-44 -86h-111l86 170h138z" />
<glyph unicode="&#xc3;" horiz-adv-x="756" d="M576 909q0 -56 -39.5 -95.5t-95.5 -39.5t-94 38l-14 14q-7 7 -19 7q-11 0 -19.5 -8t-8.5 -20h-107q0 56 39.5 95.5t95.5 39.5t94 -38l14 -14q7 -7 19 -7q11 0 19.5 8t8.5 20h107zM759 0h-203l-52 152h-253l-51 -152h-204l278 741h207zM453 307l-75 223l-75 -223h150z" />
<glyph unicode="&#xc4;" horiz-adv-x="756" d="M759 0h-203l-52 152h-253l-51 -152h-204l278 741h207zM453 307l-75 223l-75 -223h150zM552 778h-145v163h145v-163zM348 778h-144v163h144v-163z" />
<glyph unicode="&#xc5;" horiz-adv-x="756" d="M759 0h-203l-52 152h-253l-51 -152h-204l278 741h207zM453 307l-75 223l-75 -223h150zM467 852q0 -37 -26 -63t-63 -26t-63 26t-26 63t26 63t63 26t63 -26t26 -63zM426 852q0 20 -14 34t-34 14t-34 -14t-14 -34t14 -34t34 -14t34 14t14 34z" />
<glyph unicode="&#xc6;" horiz-adv-x="885" d="M833 0h-433v152h-178l-82 -152h-225l441 741h470v-156h-233v-138h226v-156h-226v-135h240v-156zM400 307v174l-94 -174h94z" />
<glyph unicode="&#xc7;" horiz-adv-x="656" d="M647 78q-75 -76 -198 -87l-11 -22q29 -3 49.5 -21.5t20.5 -45.5q0 -37 -37 -64t-96 -27q-63 0 -104 41l45 44q22 -22 51 -22q34 0 34 22q0 24 -74 24l36 71q-147 14 -234.5 115t-87.5 264q0 176 100.5 279t265.5 103q153 0 240 -89l-111 -112q-45 45 -121 45 q-75 0 -124.5 -59t-49.5 -167q0 -107 49.5 -166.5t124.5 -59.5t121 46z" />
<glyph unicode="&#xc8;" horiz-adv-x="567" d="M515 0h-434v741h426v-156h-233v-138h226v-156h-226v-135h241v-156zM356 778h-82l-170 170h195z" />
<glyph unicode="&#xc9;" horiz-adv-x="567" d="M515 0h-434v741h426v-156h-233v-138h226v-156h-226v-135h241v-156zM444 948l-170 -170h-82l57 170h195z" />
<glyph unicode="&#xca;" horiz-adv-x="567" d="M515 0h-434v741h426v-156h-233v-138h226v-156h-226v-135h241v-156zM450 778h-111l-44 86l-44 -86h-111l86 170h138z" />
<glyph unicode="&#xcb;" horiz-adv-x="567" d="M515 0h-434v741h426v-156h-233v-138h226v-156h-226v-135h241v-156zM473 778h-144v163h144v-163zM270 778h-145v163h145v-163z" />
<glyph unicode="&#xcc;" horiz-adv-x="356" d="M274 0h-193v741h193v-741zM274 778h-82l-170 170h195z" />
<glyph unicode="&#xcd;" horiz-adv-x="356" d="M274 0h-193v741h193v-741zM333 948l-169 -170h-83l58 170h194z" />
<glyph unicode="&#xce;" horiz-adv-x="356" d="M274 0h-193v741h193v-741zM333 778h-112l-43 86l-44 -86h-111l86 170h138z" />
<glyph unicode="&#xcf;" horiz-adv-x="356" d="M274 0h-193v741h193v-741zM352 778h-145v163h145v-163zM148 778h-144v163h144v-163z" />
<glyph unicode="&#xd0;" horiz-adv-x="752" d="M711 370q0 -177 -104.5 -273.5t-280.5 -96.5h-245v310h-81v120h81v311h245q176 0 280.5 -97t104.5 -274zM511 370q0 100 -51.5 157.5t-140.5 57.5h-45v-155h82v-120h-82v-154h45q89 0 140.5 57.5t51.5 156.5z" />
<glyph unicode="&#xd1;" horiz-adv-x="785" d="M704 0h-248l-182 456v-456h-193v741h249l181 -456v455h193v-740zM590 909q0 -56 -39 -95.5t-95 -39.5q-57 0 -95 38l-14 14q-6 7 -18 7t-20 -8t-8 -20h-107q0 56 39.5 95.5t95.5 39.5t94 -38l14 -14q7 -7 19 -7q11 0 19.5 8t8.5 20h106z" />
<glyph unicode="&#xd2;" horiz-adv-x="785" d="M744 370q0 -176 -95.5 -278.5t-255.5 -102.5t-256 102.5t-96 278.5q0 177 96 279.5t256 102.5q159 0 255 -103t96 -279zM544 370q0 108 -42.5 167t-108.5 59q-71 0 -111.5 -58t-40.5 -168q0 -109 40.5 -167.5t111.5 -58.5q66 0 108.5 59.5t42.5 166.5zM475 778h-82 l-170 170h195z" />
<glyph unicode="&#xd3;" horiz-adv-x="785" d="M744 370q0 -176 -95.5 -278.5t-255.5 -102.5t-256 102.5t-96 278.5q0 177 96 279.5t256 102.5q159 0 255 -103t96 -279zM544 370q0 108 -42.5 167t-108.5 59q-71 0 -111.5 -58t-40.5 -168q0 -109 40.5 -167.5t111.5 -58.5q66 0 108.5 59.5t42.5 166.5zM562 948l-169 -170 h-83l57 170h195z" />
<glyph unicode="&#xd4;" horiz-adv-x="785" d="M744 370q0 -176 -95.5 -278.5t-255.5 -102.5t-256 102.5t-96 278.5q0 177 96 279.5t256 102.5q159 0 255 -103t96 -279zM544 370q0 108 -42.5 167t-108.5 59q-71 0 -111.5 -58t-40.5 -168q0 -109 40.5 -167.5t111.5 -58.5q66 0 108.5 59.5t42.5 166.5zM547 778h-111 l-43 86l-44 -86h-111l86 170h137z" />
<glyph unicode="&#xd5;" horiz-adv-x="785" d="M744 370q0 -176 -95.5 -278.5t-255.5 -102.5t-256 102.5t-96 278.5q0 177 96 279.5t256 102.5q159 0 255 -103t96 -279zM544 370q0 108 -42.5 167t-108.5 59q-71 0 -111.5 -58t-40.5 -168q0 -109 40.5 -167.5t111.5 -58.5q66 0 108.5 59.5t42.5 166.5zM590 909 q0 -56 -39 -95.5t-95 -39.5q-57 0 -95 38l-14 14q-6 7 -18 7t-20 -8t-8 -20h-107q0 56 39.5 95.5t95.5 39.5t94 -38l14 -14q7 -7 19 -7q11 0 19.5 8t8.5 20h106z" />
<glyph unicode="&#xd6;" horiz-adv-x="785" d="M744 370q0 -176 -95.5 -278.5t-255.5 -102.5t-256 102.5t-96 278.5q0 177 96 279.5t256 102.5q159 0 255 -103t96 -279zM544 370q0 108 -42.5 167t-108.5 59q-71 0 -111.5 -58t-40.5 -168q0 -109 40.5 -167.5t111.5 -58.5q66 0 108.5 59.5t42.5 166.5zM567 778h-145v163 h145v-163zM363 778h-144v163h144v-163z" />
<glyph unicode="&#xd7;" horiz-adv-x="570" d="M519 511l-149 -148l147 -149l-83 -85l-149 149l-148 -148l-85 84l149 149l-148 148l84 85l148 -149l148 148z" />
<glyph unicode="&#xd8;" horiz-adv-x="785" d="M744 370q0 -176 -95.5 -278.5t-255.5 -102.5q-91 0 -164 35l-40 -61h-133l83 126q-98 104 -98 281t96 279.5t256 102.5q91 0 163 -35l40 61h134l-84 -126q98 -103 98 -282zM462 576q-31 20 -69 20q-71 0 -111.5 -58t-40.5 -168q0 -63 13 -108zM544 370q0 60 -14 107 l-208 -314q32 -19 71 -19q66 0 108.5 59.5t42.5 166.5z" />
<glyph unicode="&#xd9;" horiz-adv-x="763" d="M681 259q0 -125 -80.5 -199.5t-219.5 -74.5q-138 0 -219 74.5t-81 199.5v482h193v-482q0 -56 30.5 -87t76.5 -31q47 0 77.5 31t30.5 87v482h192v-482zM464 778h-83l-169 170h195z" />
<glyph unicode="&#xda;" horiz-adv-x="763" d="M681 259q0 -125 -80.5 -199.5t-219.5 -74.5q-138 0 -219 74.5t-81 199.5v482h193v-482q0 -56 30.5 -87t76.5 -31q47 0 77.5 31t30.5 87v482h192v-482zM551 948l-170 -170h-82l57 170h195z" />
<glyph unicode="&#xdb;" horiz-adv-x="763" d="M681 259q0 -125 -80.5 -199.5t-219.5 -74.5q-138 0 -219 74.5t-81 199.5v482h193v-482q0 -56 30.5 -87t76.5 -31q47 0 77.5 31t30.5 87v482h192v-482zM536 778h-111l-44 86l-43 -86h-111l86 170h137z" />
<glyph unicode="&#xdc;" horiz-adv-x="763" d="M681 259q0 -125 -80.5 -199.5t-219.5 -74.5q-138 0 -219 74.5t-81 199.5v482h193v-482q0 -56 30.5 -87t76.5 -31q47 0 77.5 31t30.5 87v482h192v-482zM556 778h-145v163h145v-163zM352 778h-145v163h145v-163z" />
<glyph unicode="&#xdd;" horiz-adv-x="674" d="M700 741l-267 -441v-300h-192v300l-267 441h245l118 -241l119 241h244zM507 948l-170 -170h-82l57 170h195z" />
<glyph unicode="&#xde;" horiz-adv-x="648" d="M274 741v-142h104q110 0 182.5 -66.5t72.5 -162.5t-72.5 -162.5t-182.5 -66.5h-104v-141h-193v741h193zM437 370q0 31 -23.5 52t-61.5 21h-78v-146h78q38 0 61.5 20.5t23.5 52.5z" />
<glyph unicode="&#xdf;" horiz-adv-x="665" d="M621 228q0 -108 -74 -173.5t-200 -65.5q-31 0 -62 6v146q27 -8 56 -8q39 0 67 28t28 67t-28 66.5t-67 27.5h-56v137h48q38 0 60 21.5t22 52.5q0 33 -23.5 53.5t-58.5 20.5q-34 0 -57.5 -23.5t-23.5 -57.5v-526h-178v526q0 95 69.5 160.5t193.5 65.5q117 0 190 -57 t73 -139q0 -108 -102 -161q56 -23 89.5 -68.5t33.5 -98.5z" />
<glyph unicode="&#xe0;" d="M548 0h-170v74q-47 -85 -156 -85q-81 0 -133 47t-52 112q0 78 67.5 126t191.5 48h74q0 39 -29.5 66t-73.5 27q-53 0 -102 -39l-98 99q98 73 226 73q119 0 187 -61.5t68 -156.5v-330zM370 226h-74q-37 0 -59 -17t-22 -42q0 -22 16 -39t48 -17q43 0 67 34.5t24 80.5z M375 585h-82l-170 171h195z" />
<glyph unicode="&#xe1;" d="M548 0h-170v74q-47 -85 -156 -85q-81 0 -133 47t-52 112q0 78 67.5 126t191.5 48h74q0 39 -29.5 66t-73.5 27q-53 0 -102 -39l-98 99q98 73 226 73q119 0 187 -61.5t68 -156.5v-330zM370 226h-74q-37 0 -59 -17t-22 -42q0 -22 16 -39t48 -17q43 0 67 34.5t24 80.5z M462 756l-169 -171h-83l57 171h195z" />
<glyph unicode="&#xe2;" d="M548 0h-170v74q-47 -85 -156 -85q-81 0 -133 47t-52 112q0 78 67.5 126t191.5 48h74q0 39 -29.5 66t-73.5 27q-53 0 -102 -39l-98 99q98 73 226 73q119 0 187 -61.5t68 -156.5v-330zM370 226h-74q-37 0 -59 -17t-22 -42q0 -22 16 -39t48 -17q43 0 67 34.5t24 80.5z M447 585h-111l-43 87l-44 -87h-111l86 171h137z" />
<glyph unicode="&#xe3;" d="M496 732q0 -56 -39.5 -95.5t-95.5 -39.5t-94 38l-14 14q-7 7 -19 7q-11 0 -19.5 -8t-8.5 -20h-107q0 56 39.5 95.5t95.5 39.5t94 -38l14 -14q7 -7 19 -7q11 0 19.5 8t8.5 20h107zM548 0h-170v74q-47 -85 -156 -85q-81 0 -133 47t-52 112q0 78 67.5 126t191.5 48h74 q0 39 -29.5 66t-73.5 27q-53 0 -102 -39l-98 99q98 73 226 73q119 0 187 -61.5t68 -156.5v-330zM370 226h-74q-37 0 -59 -17t-22 -42q0 -22 16 -39t48 -17q43 0 67 34.5t24 80.5z" />
<glyph unicode="&#xe4;" d="M548 0h-170v74q-47 -85 -156 -85q-81 0 -133 47t-52 112q0 78 67.5 126t191.5 48h74q0 39 -29.5 66t-73.5 27q-53 0 -102 -39l-98 99q98 73 226 73q119 0 187 -61.5t68 -156.5v-330zM370 226h-74q-37 0 -59 -17t-22 -42q0 -22 16 -39t48 -17q43 0 67 34.5t24 80.5z M467 578h-145v163h145v-163zM263 578h-144v163h144v-163z" />
<glyph unicode="&#xe5;" d="M548 0h-170v74q-47 -85 -156 -85q-81 0 -133 47t-52 112q0 78 67.5 126t191.5 48h74q0 39 -29.5 66t-73.5 27q-53 0 -102 -39l-98 99q98 73 226 73q119 0 187 -61.5t68 -156.5v-330zM370 226h-74q-37 0 -59 -17t-22 -42q0 -22 16 -39t48 -17q43 0 67 34.5t24 80.5z M381 674q0 -37 -25.5 -63t-62.5 -26t-63 26t-26 63t26 63t63 26t62.5 -26t25.5 -63zM341 674q0 20 -14 34t-34 14t-34.5 -14t-14.5 -34t14.5 -34t34.5 -14t34 14t14 34z" />
<glyph unicode="&#xe6;" horiz-adv-x="919" d="M896 222h-343q10 -47 42.5 -73.5t74.5 -26.5q57 0 93 36l99 -99q-90 -70 -206 -70q-69 0 -125.5 30t-86.5 74q-50 -104 -203 -104q-95 0 -149.5 46t-54.5 113q0 78 67.5 126t191.5 48h74q0 39 -29.5 66t-73.5 27q-53 0 -102 -39l-98 99q98 73 226 73q113 0 175 -56 q64 52 165 52q122 0 192.5 -74t70.5 -203v-45zM719 333q-9 43 -28.5 64.5t-53.5 21.5q-65 0 -83 -86h165zM370 226h-74q-37 0 -59 -17t-22 -42q0 -22 16 -39t48 -17q43 0 67 34.5t24 80.5z" />
<glyph unicode="&#xe7;" horiz-adv-x="544" d="M521 59q-75 -58 -156 -68l-11 -22q29 -3 49.5 -21.5t20.5 -45.5q0 -37 -37 -64t-96 -27q-61 0 -104 41l45 44q22 -22 52 -22q33 0 33 22q0 24 -73 24l36 72q-105 13 -174 87.5t-69 187.5q0 124 82.5 200.5t202.5 76.5q108 0 199 -69l-106 -107q-32 32 -82 32 q-46 0 -78.5 -37t-32.5 -96q0 -60 32.5 -97t78.5 -37q50 0 82 32z" />
<glyph unicode="&#xe8;" horiz-adv-x="593" d="M570 222h-343q10 -47 42.5 -73.5t74.5 -26.5q57 0 93 36l99 -99q-90 -70 -206 -70q-128 0 -210.5 76t-82.5 202q0 127 73.5 202t196.5 75q122 0 192.5 -74t70.5 -203v-45zM393 333q-9 43 -28 64.5t-54 21.5q-65 0 -83 -86h165zM390 585h-83l-169 171h195z" />
<glyph unicode="&#xe9;" horiz-adv-x="593" d="M477 756l-170 -171h-82l57 171h195zM570 222h-343q10 -47 42.5 -73.5t74.5 -26.5q57 0 93 36l99 -99q-90 -70 -206 -70q-128 0 -210.5 76t-82.5 202q0 127 73.5 202t196.5 75q122 0 192.5 -74t70.5 -203v-45zM393 333q-9 43 -28 64.5t-54 21.5q-65 0 -83 -86h165z" />
<glyph unicode="&#xea;" horiz-adv-x="593" d="M570 222h-343q10 -47 42.5 -73.5t74.5 -26.5q57 0 93 36l99 -99q-90 -70 -206 -70q-128 0 -210.5 76t-82.5 202q0 127 73.5 202t196.5 75q122 0 192.5 -74t70.5 -203v-45zM393 333q-9 43 -28 64.5t-54 21.5q-65 0 -83 -86h165zM462 585h-111l-44 87l-43 -87h-111l86 171 h137z" />
<glyph unicode="&#xeb;" horiz-adv-x="593" d="M570 222h-343q10 -47 42.5 -73.5t74.5 -26.5q57 0 93 36l99 -99q-90 -70 -206 -70q-128 0 -210.5 76t-82.5 202q0 127 73.5 202t196.5 75q122 0 192.5 -74t70.5 -203v-45zM393 333q-9 43 -28 64.5t-54 21.5q-65 0 -83 -86h165zM481 578h-144v163h144v-163zM278 578h-145 v163h145v-163z" />
<glyph unicode="&#xec;" horiz-adv-x="326" d="M252 0h-178v533h178v-533zM252 585h-82l-170 171h195z" />
<glyph unicode="&#xed;" horiz-adv-x="326" d="M326 756l-170 -171h-82l57 171h195zM252 0h-178v533h178v-533z" />
<glyph unicode="&#xee;" horiz-adv-x="326" d="M318 585h-111l-44 87l-44 -87h-111l86 171h138zM252 0h-178v533h178v-533z" />
<glyph unicode="&#xef;" horiz-adv-x="326" d="M337 578h-144v163h144v-163zM133 578h-144v163h144v-163zM252 0h-178v533h178v-533z" />
<glyph unicode="&#xf0;" horiz-adv-x="652" d="M604 370q0 -177 -77 -279t-216 -102q-113 0 -192.5 69.5t-79.5 177.5q0 109 73.5 177t183.5 68q39 0 75.5 -16.5t51.5 -39.5q-3 52 -19 88l-34 -34l-84 84l32 32q-20 5 -37 5q-73 0 -120 -49l-112 112q89 89 229 89q91 0 159 -38l42 42l84 -84l-36 -36q77 -102 77 -266z M410 236q0 44 -27.5 74.5t-71.5 30.5q-43 0 -70.5 -30.5t-27.5 -74.5q0 -45 27.5 -75.5t70.5 -30.5q44 0 71.5 30.5t27.5 75.5z" />
<glyph unicode="&#xf1;" horiz-adv-x="681" d="M607 0h-177v289q0 111 -86 111q-41 0 -66.5 -32t-25.5 -101v-267h-178v533h170v-75q21 39 64 62.5t99 23.5q87 0 143.5 -59.5t56.5 -158.5v-326zM534 732q0 -56 -39.5 -95.5t-95.5 -39.5t-94 38l-14 14q-7 7 -18 7q-12 0 -20.5 -8t-8.5 -20h-106q0 56 39.5 95.5 t95.5 39.5t94 -38l14 -14q6 -7 18 -7t20 8t8 20h107z" />
<glyph unicode="&#xf2;" d="M585 267q0 -127 -75.5 -202.5t-198.5 -75.5t-198.5 75.5t-75.5 202.5t75.5 202t198.5 75t198.5 -75t75.5 -202zM400 267q0 66 -24 99.5t-65 33.5t-65 -33.5t-24 -99.5q0 -67 24 -100.5t65 -33.5t65 33.5t24 100.5zM393 585h-82l-170 171h195z" />
<glyph unicode="&#xf3;" d="M481 756l-170 -171h-82l57 171h195zM585 267q0 -127 -75.5 -202.5t-198.5 -75.5t-198.5 75.5t-75.5 202.5t75.5 202t198.5 75t198.5 -75t75.5 -202zM400 267q0 66 -24 99.5t-65 33.5t-65 -33.5t-24 -99.5q0 -67 24 -100.5t65 -33.5t65 33.5t24 100.5z" />
<glyph unicode="&#xf4;" d="M585 267q0 -127 -75.5 -202.5t-198.5 -75.5t-198.5 75.5t-75.5 202.5t75.5 202t198.5 75t198.5 -75t75.5 -202zM400 267q0 66 -24 99.5t-65 33.5t-65 -33.5t-24 -99.5q0 -67 24 -100.5t65 -33.5t65 33.5t24 100.5zM466 585h-111l-44 87l-44 -87h-111l86 171h138z" />
<glyph unicode="&#xf5;" d="M510 732q0 -56 -39.5 -95.5t-95.5 -39.5t-94 38l-14 14q-7 7 -19 7q-11 0 -19.5 -8t-8.5 -20h-107q0 56 39.5 95.5t95.5 39.5t94 -38l14 -14q7 -7 19 -7q11 0 19.5 8t8.5 20h107zM585 267q0 -127 -75.5 -202.5t-198.5 -75.5t-198.5 75.5t-75.5 202.5t75.5 202t198.5 75 t198.5 -75t75.5 -202zM400 267q0 66 -24 99.5t-65 33.5t-65 -33.5t-24 -99.5q0 -67 24 -100.5t65 -33.5t65 33.5t24 100.5z" />
<glyph unicode="&#xf6;" d="M485 578h-144v163h144v-163zM281 578h-144v163h144v-163zM585 267q0 -127 -75.5 -202.5t-198.5 -75.5t-198.5 75.5t-75.5 202.5t75.5 202t198.5 75t198.5 -75t75.5 -202zM400 267q0 66 -24 99.5t-65 33.5t-65 -33.5t-24 -99.5q0 -67 24 -100.5t65 -33.5t65 33.5t24 100.5 z" />
<glyph unicode="&#xf8;" d="M585 267q0 -127 -75.5 -202.5t-198.5 -75.5q-59 0 -108 18l-27 -44h-111l58 92q-86 76 -86 212q0 127 75.5 202t198.5 75q59 0 108 -18l27 44h111l-57 -92q85 -76 85 -211zM337 396q-11 4 -26 4q-41 0 -65 -33.5t-24 -99.5q0 -19 4 -47zM400 267q0 28 -4 47l-111 -177 q16 -4 26 -4q41 0 65 33.5t24 100.5z" />
<glyph unicode="&#xf9;" horiz-adv-x="681" d="M607 0h-170v76q-21 -40 -63.5 -63.5t-99.5 -23.5q-87 0 -143.5 59.5t-56.5 158.5v326h178v-289q0 -111 85 -111q42 0 67.5 32.5t25.5 101.5v266h177v-533zM430 585h-83l-169 171h195z" />
<glyph unicode="&#xfa;" horiz-adv-x="681" d="M504 756l-170 -171h-82l57 171h195zM607 0h-170v76q-21 -40 -63.5 -63.5t-99.5 -23.5q-87 0 -143.5 59.5t-56.5 158.5v326h178v-289q0 -111 85 -111q42 0 67.5 32.5t25.5 101.5v266h177v-533z" />
<glyph unicode="&#xfb;" horiz-adv-x="681" d="M607 0h-170v76q-21 -40 -63.5 -63.5t-99.5 -23.5q-87 0 -143.5 59.5t-56.5 158.5v326h178v-289q0 -111 85 -111q42 0 67.5 32.5t25.5 101.5v266h177v-533zM496 585h-112l-43 87l-44 -87h-111l86 171h138z" />
<glyph unicode="&#xfc;" horiz-adv-x="681" d="M607 0h-170v76q-21 -40 -63.5 -63.5t-99.5 -23.5q-87 0 -143.5 59.5t-56.5 158.5v326h178v-289q0 -111 85 -111q42 0 67.5 32.5t25.5 101.5v266h177v-533zM515 578h-145v163h145v-163zM311 578h-144v163h144v-163z" />
<glyph unicode="&#xfd;" horiz-adv-x="588" d="M596 533l-243 -623q-16 -42 -61.5 -72.5t-112.5 -30.5q-63 0 -123 15v137q33 -15 71 -15q32 0 47.5 12.5t25.5 43.5l-207 533h192l107 -347l111 347h193zM461 756l-169 -171h-82l57 171h194z" />
<glyph unicode="&#xfe;" horiz-adv-x="667" d="M630 267q0 -124 -69.5 -201t-167.5 -77q-39 0 -80.5 20t-60.5 50v-244h-178v926h178v-267q19 30 60 50t81 20q98 0 167.5 -76.5t69.5 -200.5zM444 267q0 66 -27 99.5t-69 33.5t-69 -33.5t-27 -99.5t27 -100t69 -34t69 34t27 100z" />
<glyph unicode="&#xff;" horiz-adv-x="588" d="M596 533l-243 -623q-16 -42 -61.5 -72.5t-112.5 -30.5q-63 0 -123 15v137q33 -15 71 -15q32 0 47.5 12.5t25.5 43.5l-207 533h192l107 -347l111 347h193zM466 578h-145v163h145v-163zM262 578h-144v163h144v-163z" />
<glyph unicode="&#x152;" horiz-adv-x="1030" d="M978 0h-434v31q-67 -42 -151 -42q-160 0 -256 102.5t-96 278.5q0 177 96 279.5t256 102.5q84 0 151 -42v31h426v-156h-233v-138h226v-156h-226v-135h241v-156zM544 370q0 108 -42.5 167t-108.5 59q-71 0 -111.5 -58t-40.5 -168q0 -109 40.5 -167.5t111.5 -58.5 q66 0 108.5 59.5t42.5 166.5z" />
<glyph unicode="&#x153;" horiz-adv-x="956" d="M933 222h-343q10 -47 42.5 -73.5t74.5 -26.5q57 0 93 36l99 -99q-90 -70 -206 -70q-121 0 -196 70q-68 -70 -186 -70q-123 0 -198.5 75.5t-75.5 202.5t75.5 202t198.5 75q111 0 180 -64q69 64 179 64q122 0 192.5 -74t70.5 -203v-45zM756 333q-9 43 -28.5 64.5 t-53.5 21.5q-65 0 -83 -86h165zM400 267q0 66 -24 99.5t-65 33.5t-65 -33.5t-24 -99.5q0 -67 24 -100.5t65 -33.5t65 33.5t24 100.5z" />
<glyph unicode="&#x178;" horiz-adv-x="674" d="M511 778h-144v163h144v-163zM307 778h-144v163h144v-163zM700 741l-267 -441v-300h-192v300l-267 441h245l118 -241l119 241h244z" />
<glyph unicode="&#x2c6;" horiz-adv-x="333" d="M321 585h-111l-43 87l-44 -87h-111l86 171h138z" />
<glyph unicode="&#x2dc;" horiz-adv-x="423" d="M410 732q0 -56 -39.5 -95.5t-95.5 -39.5t-94 38l-14 14q-7 7 -19 7q-11 0 -19.5 -8t-8.5 -20h-107q0 56 39.5 95.5t95.5 39.5t94 -38l14 -14q7 -7 19 -7q11 0 19.5 8t8.5 20h107z" />
<glyph unicode="&#x2000;" horiz-adv-x="481" />
<glyph unicode="&#x2001;" horiz-adv-x="963" />
<glyph unicode="&#x2002;" horiz-adv-x="481" />
<glyph unicode="&#x2003;" horiz-adv-x="963" />
<glyph unicode="&#x2004;" horiz-adv-x="321" />
<glyph unicode="&#x2005;" horiz-adv-x="240" />
<glyph unicode="&#x2006;" horiz-adv-x="160" />
<glyph unicode="&#x2007;" horiz-adv-x="160" />
<glyph unicode="&#x2008;" horiz-adv-x="120" />
<glyph unicode="&#x2009;" horiz-adv-x="192" />
<glyph unicode="&#x200a;" horiz-adv-x="53" />
<glyph unicode="&#x2010;" horiz-adv-x="359" d="M315 219h-271v118h271v-118z" />
<glyph unicode="&#x2011;" horiz-adv-x="359" d="M315 219h-271v118h271v-118z" />
<glyph unicode="&#x2013;" horiz-adv-x="681" d="M637 219h-593v118h593v-118z" />
<glyph unicode="&#x2014;" horiz-adv-x="1000" d="M956 219h-912v118h912v-118z" />
<glyph unicode="&#x2018;" horiz-adv-x="319" d="M246 741l-35 -304h-185l126 304h94z" />
<glyph unicode="&#x2019;" horiz-adv-x="319" d="M293 741l-126 -304h-94l34 304h186z" />
<glyph unicode="&#x201a;" horiz-adv-x="311" d="M285 174l-126 -304h-94l35 304h185z" />
<glyph unicode="&#x201c;" horiz-adv-x="556" d="M246 741l-35 -304h-185l126 304h94zM490 741l-34 -304h-186l126 304h94z" />
<glyph unicode="&#x201d;" horiz-adv-x="556" d="M285 741l-126 -304h-94l35 304h185zM530 741l-126 -304h-94l34 304h186z" />
<glyph unicode="&#x201e;" horiz-adv-x="556" d="M285 174l-126 -304h-94l35 304h185zM530 174l-126 -304h-94l34 304h186z" />
<glyph unicode="&#x2022;" horiz-adv-x="326" d="M274 296q0 -46 -32.5 -78.5t-78.5 -32.5t-78.5 32.5t-32.5 78.5t32.5 78.5t78.5 32.5t78.5 -32.5t32.5 -78.5z" />
<glyph unicode="&#x2026;" horiz-adv-x="874" d="M807 0h-185v174h185v-174zM252 0h-185v174h185v-174zM530 0h-186v174h186v-174z" />
<glyph unicode="&#x202f;" horiz-adv-x="192" />
<glyph unicode="&#x2039;" horiz-adv-x="363" d="M327 89h-171l-104 207l104 208h171l-103 -208z" />
<glyph unicode="&#x203a;" horiz-adv-x="363" d="M311 296l-104 -207h-171l103 207l-103 208h171z" />
<glyph unicode="&#x205f;" horiz-adv-x="240" />
<glyph unicode="&#x20ac;" horiz-adv-x="670" d="M662 78q-89 -89 -240 -89q-141 0 -236 75.5t-121 209.5h-80v78h71v18v19h-71v78h80q26 134 121 209.5t236 75.5q151 0 240 -89l-112 -112q-44 45 -120 45q-56 0 -99 -33.5t-62 -95.5h247v-78h-260v-19v-18h260v-78h-247q19 -63 62 -96.5t99 -33.5q75 0 120 46z" />
<glyph unicode="&#x2122;" horiz-adv-x="479" d="M435 556h-67v90l-23 -90h-55l-23 90v-90h-67v185h99l18 -75l19 75h99v-185zM185 682h-45v-126h-73v126h-45v59h163v-59z" />
</font>
</defs>
</svg>
