<?xml version="1.0" standalone="no"?>
<!DOCTYPE svg PUBLIC "-//W3C//DTD SVG 1.1//EN" "http://www.w3.org/Graphics/SVG/1.1/DTD/svg11.dtd" >
<svg xmlns="http://www.w3.org/2000/svg">
<metadata>
This is a custom SVG webfont generated by Font Squirrel.
Designer    : Yamaoka Yasuhiro
Foundry     : YOFonts
Foundry URL : www.yoworks.com
</metadata>
<defs>
<font id="webfont9EFQqcWQ" horiz-adv-x="652" >
<font-face units-per-em="1000" ascent="800" descent="-200" />
<missing-glyph horiz-adv-x="259" />
<glyph unicode=" "  horiz-adv-x="259" />
<glyph unicode="&#x09;" horiz-adv-x="259" />
<glyph unicode="&#xa0;" horiz-adv-x="259" />
<glyph unicode="!" horiz-adv-x="307" d="M224 0h-141v135h141v-135zM233 741l-31 -545h-96l-32 545h159z" />
<glyph unicode="&#x22;" horiz-adv-x="489" d="M243 741l-95 -248h-79l31 248h143zM446 741l-95 -248h-78l31 248h142z" />
<glyph unicode="#" horiz-adv-x="600" d="M578 520h-117l-32 -153h101v-89h-118l-27 -130h-92l26 130h-106l-26 -130h-93l27 130h-99v89h117l31 153h-100v89h118l27 132h92l-27 -132h107l26 132h92l-26 -132h99v-89zM369 520h-106l-32 -153h106z" />
<glyph unicode="$" horiz-adv-x="521" d="M490 230q0 -78 -48.5 -132.5t-135.5 -69.5v-65h-85v62q-117 8 -191 82l76 77q46 -48 115 -56v202q-40 13 -65 25t-54 33.5t-43.5 55.5t-14.5 80q0 68 46 121.5t131 67.5v65h85v-62q110 -10 182 -82l-76 -76q-47 47 -106 54v-183q42 -15 67 -26.5t56 -34t46 -57t15 -81.5z M224 460v142q-51 -24 -51 -72q0 -43 51 -70zM358 225q0 47 -56 74v-159q56 27 56 85z" />
<glyph unicode="%" horiz-adv-x="902" d="M876 207q0 -95 -55.5 -154.5t-138.5 -59.5q-82 0 -137.5 59.5t-55.5 154.5t55.5 155t137.5 60q83 0 138.5 -60t55.5 -155zM739 778l-482 -815h-94l481 815h95zM413 533q0 -95 -55.5 -154.5t-137.5 -59.5q-83 0 -138.5 59.5t-55.5 154.5t55.5 155t138.5 60q82 0 137.5 -60 t55.5 -155zM780 207q0 58 -27.5 95.5t-70.5 37.5q-42 0 -70 -37.5t-28 -95.5q0 -57 28 -94.5t70 -37.5q43 0 70.5 37.5t27.5 94.5zM318 533q0 58 -28 95.5t-70 37.5q-43 0 -70.5 -37.5t-27.5 -95.5q0 -57 27.5 -94.5t70.5 -37.5q42 0 70 37.5t28 94.5z" />
<glyph unicode="&#x26;" horiz-adv-x="726" d="M777 0h-173l-66 66q-85 -79 -221 -79q-122 0 -195.5 57t-73.5 148q0 133 145 216q-52 52 -72 90t-20 87q0 63 54.5 116t147.5 53q92 0 146 -53t54 -116q0 -57 -29.5 -101t-93.5 -88l143 -142q22 63 22 153h130q0 -142 -55 -250zM377 581q0 28 -21 49.5t-53 21.5 t-53 -21.5t-21 -49.5t14.5 -50.5t54.5 -61.5q44 29 61.5 54.5t17.5 57.5zM455 149l-184 184q-85 -52 -85 -133q0 -46 37.5 -77.5t92.5 -31.5q87 0 139 58z" />
<glyph unicode="'" horiz-adv-x="289" d="M244 741l-94 -248h-79l31 248h142z" />
<glyph unicode="(" horiz-adv-x="370" d="M331 -7l-116 -45q-135 212 -135 422q0 209 135 423l116 -45q-118 -183 -118 -378q0 -201 118 -377z" />
<glyph unicode=")" horiz-adv-x="370" d="M291 370q0 -210 -135 -422l-117 45q119 185 119 377q0 199 -119 378l117 45q135 -214 135 -423z" />
<glyph unicode="*" horiz-adv-x="416" d="M393 580l-126 -41l78 -108l-58 -43l-79 108l-78 -108l-59 43l79 108l-127 41l22 69l127 -42v134h72v-134l127 42z" />
<glyph unicode="+" horiz-adv-x="563" d="M522 317h-194v-195h-93v195h-194v92h194v195h93v-195h194v-92z" />
<glyph unicode="," horiz-adv-x="289" d="M228 135l-95 -248h-79l31 248h143z" />
<glyph unicode="-" horiz-adv-x="344" d="M300 231h-256v93h256v-93z" />
<glyph unicode="." horiz-adv-x="289" d="M215 0h-141v135h141v-135z" />
<glyph unicode="/" horiz-adv-x="326" d="M307 778l-203 -815h-85l203 815h85z" />
<glyph unicode="0" horiz-adv-x="667" d="M615 370q0 -174 -75.5 -277.5t-206.5 -103.5t-206 103.5t-75 277.5t75 278t206 104t206.5 -104t75.5 -278zM474 370q0 271 -141 271q-140 0 -140 -271q0 -270 140 -270q141 0 141 270z" />
<glyph unicode="1" horiz-adv-x="426" d="M320 0h-131v603q-21 -21 -66.5 -41t-92.5 -26v114q44 6 94.5 34t79.5 57h116v-741z" />
<glyph unicode="2" horiz-adv-x="578" d="M537 0h-489v94q186 169 257.5 262t71.5 179q0 43 -31 73.5t-82 30.5q-69 0 -129 -60l-85 84q93 91 221 91q111 0 177 -61t66 -156q0 -93 -67.5 -194.5t-204.5 -225.5h295v-117z" />
<glyph unicode="3" horiz-adv-x="570" d="M524 208q0 -94 -77 -157.5t-195 -63.5q-141 0 -223 91l85 84q60 -60 134 -60q60 0 97.5 32t37.5 78t-37.5 78.5t-97.5 32.5h-68v116h68q60 0 93 28.5t33 71.5q0 42 -33.5 71t-88.5 29q-69 0 -129 -60l-85 84q91 91 214 91q110 0 182.5 -60t72.5 -152q0 -59 -34.5 -102.5 t-76.5 -58.5q50 -15 89 -66t39 -107z" />
<glyph unicode="4" horiz-adv-x="644" d="M610 167h-107v-167h-129v167h-330v120l322 454h137v-458h107v-116zM374 283v286l-199 -286h199z" />
<glyph unicode="5" horiz-adv-x="585" d="M542 234q0 -107 -74 -177t-194 -70q-144 0 -226 91l85 84q60 -60 138 -60q62 0 100 38.5t38 93.5t-38 94t-100 39q-49 0 -87 -29l-106 53v350h422v-117h-291v-166q39 18 89 18q105 0 174.5 -70t69.5 -172z" />
<glyph unicode="6" d="M603 233q0 -105 -75.5 -174.5t-188.5 -69.5q-137 0 -209.5 103.5t-72.5 277.5q0 175 81.5 278.5t228.5 103.5q129 0 220 -89l-85 -84q-58 58 -137 58q-80 0 -125.5 -63.5t-47.5 -175.5q16 29 59.5 53.5t94.5 24.5q112 0 184.5 -69.5t72.5 -173.5zM470 233q0 55 -36 94.5 t-95 39.5t-95 -39.5t-36 -94.5t36 -95t95 -40t95 40t36 95z" />
<glyph unicode="7" horiz-adv-x="574" d="M535 646q-103 -146 -165.5 -291.5t-106.5 -354.5h-150q50 211 109.5 354.5t146.5 269.5h-340v117h506v-95z" />
<glyph unicode="8" horiz-adv-x="637" d="M591 208q0 -94 -77 -157.5t-195 -63.5q-119 0 -196 63.5t-77 157.5q0 56 38.5 106.5t88.5 66.5q-41 15 -75.5 59t-34.5 102q0 92 72.5 152t183.5 60q110 0 182.5 -60t72.5 -152q0 -59 -34.5 -102.5t-76.5 -58.5q50 -15 89 -66t39 -107zM441 539q0 44 -33.5 75.5 t-88.5 31.5t-89 -31.5t-34 -75.5t34 -75t89 -31t88.5 31t33.5 75zM450 212q0 49 -36 83.5t-95 34.5q-60 0 -96 -34.5t-36 -83.5t36 -83.5t96 -34.5q59 0 95 34.5t36 83.5z" />
<glyph unicode="9" d="M594 370q0 -175 -81 -278t-228 -103q-131 0 -220 89l85 84q58 -58 137 -58q80 0 125.5 63.5t47.5 175.5q-17 -29 -60 -53.5t-94 -24.5q-112 0 -184.5 69.5t-72.5 173.5q0 105 75.5 174.5t188.5 69.5q137 0 209 -103.5t72 -278.5zM444 508q0 55 -36 95t-95 40t-95 -40 t-36 -95t36 -94.5t95 -39.5t95 39.5t36 94.5z" />
<glyph unicode=":" horiz-adv-x="289" d="M215 0h-141v135h141v-135zM215 398h-141v135h141v-135z" />
<glyph unicode=";" horiz-adv-x="289" d="M215 398h-141v135h141v-135zM228 135l-95 -248h-79l31 248h143z" />
<glyph unicode="&#x3c;" horiz-adv-x="326" d="M288 89h-129l-103 207l103 208h129l-104 -208z" />
<glyph unicode="=" horiz-adv-x="563" d="M522 409h-481v93h481v-93zM522 224h-481v93h481v-93z" />
<glyph unicode="&#x3e;" horiz-adv-x="326" d="M270 296l-103 -207h-129l103 207l-103 208h129z" />
<glyph unicode="?" horiz-adv-x="528" d="M302 0h-141v135h141v-135zM487 543q0 -51 -19.5 -88t-57.5 -75q-2 -5 -26 -25.5t-26 -25.5q-34 -34 -49 -62.5t-15 -70.5h-125q0 106 58 168q2 6 25 26.5t25 24.5q24 25 34 37t20 36t10 51q0 39 -30 69.5t-76 30.5q-70 0 -128 -60l-85 84q94 91 219 91q110 0 178 -61.5 t68 -149.5z" />
<glyph unicode="@" horiz-adv-x="844" d="M808 378q-8 -92 -69 -156t-137 -64q-40 0 -64 25q-23 23 -23 58v6q-19 -41 -64.5 -66t-94.5 -25q-72 0 -116 62q-34 45 -34 106q0 20 4 42q16 93 80.5 152t139.5 59q36 0 68 -18.5t42 -47.5l10 57h100l-51 -288q-2 -9 -2 -17q0 -30 27 -30q37 0 70 45.5t38 110.5 q1 15 1 29q0 110 -69 182q-79 82 -211 82q-133 0 -225.5 -93.5t-102.5 -221.5q-1 -15 -1 -29q0 -110 69 -188q78 -88 209 -88q123 0 216 83l53 -59q-121 -101 -281 -101q-165 0 -264 114q-88 103 -88 249q0 16 1 33q4 72 36.5 139.5t85 120t127.5 84t159 31.5 q173 0 275 -107q88 -93 88 -230q0 -20 -2 -41zM514 366q3 18 3 33q0 35 -15 59q-23 34 -66 34t-77.5 -34.5t-44.5 -91.5q-3 -18 -3 -33q0 -35 15 -59q23 -34 65 -34q43 0 78.5 34.5t44.5 91.5z" />
<glyph unicode="A" horiz-adv-x="704" d="M704 0h-150l-60 170h-285l-59 -170h-150l276 741h152zM455 287l-103 295l-103 -295h206z" />
<glyph unicode="B" horiz-adv-x="656" d="M611 198q0 -87 -61.5 -142.5t-173.5 -55.5h-287v741h287q98 0 159 -53t61 -131q0 -69 -41 -120.5t-112 -63.5q75 -8 121.5 -55.5t46.5 -119.5zM452 530q0 42 -26.5 68t-79.5 26h-116v-193h103q53 0 86 27t33 72zM467 219q0 42 -33 68.5t-90 26.5h-114v-197h114 q59 0 91 27.5t32 74.5z" />
<glyph unicode="C" horiz-adv-x="650" d="M633 78q-89 -89 -233 -89q-160 0 -258 104.5t-98 276.5t98 277t258 105q142 0 233 -89l-85 -84q-56 56 -144 56q-93 0 -153 -71.5t-60 -193.5t60 -193t153 -71q88 0 144 56z" />
<glyph unicode="D" horiz-adv-x="735" d="M691 370q0 -177 -107 -273.5t-275 -96.5h-220v741h220q170 0 276 -96.5t106 -274.5zM544 370q0 122 -66 188t-172 66h-76v-507h76q106 0 172 66t66 187z" />
<glyph unicode="E" horiz-adv-x="554" d="M498 0h-409v741h402v-117h-261v-193h253v-117h-253v-197h268v-117z" />
<glyph unicode="F" horiz-adv-x="528" d="M498 624h-268v-193h261v-117h-261v-314h-141v741h409v-117z" />
<glyph unicode="G" horiz-adv-x="711" d="M657 46q-96 -57 -248 -57q-165 0 -265 104.5t-100 276.5q0 173 99.5 277.5t265.5 104.5q74 0 138 -23.5t106 -65.5l-84 -84q-56 56 -154 56q-99 0 -161.5 -71t-62.5 -194t62.5 -193t161.5 -70q56 0 101 20v165h-136v117h277v-363z" />
<glyph unicode="H" horiz-adv-x="733" d="M644 0h-140v314h-274v-314h-141v741h141v-310h274v310h140v-741z" />
<glyph unicode="I" horiz-adv-x="319" d="M230 0h-141v741h141v-741z" />
<glyph unicode="J" horiz-adv-x="522" d="M433 213q0 -103 -67 -165.5t-173 -62.5q-112 0 -193 93l84 84q44 -58 109 -58q46 0 73 29t27 80v528h140v-528z" />
<glyph unicode="K" horiz-adv-x="663" d="M674 0h-178l-266 354v-354h-141v741h141v-339l257 339h176l-293 -363z" />
<glyph unicode="L" horiz-adv-x="498" d="M498 0h-409v741h141v-624h268v-117z" />
<glyph unicode="M" horiz-adv-x="948" d="M859 0h-140v576l-162 -576h-166l-161 576v-576h-141v741h223l162 -585l162 585h223v-741z" />
<glyph unicode="N" horiz-adv-x="752" d="M663 0h-187l-246 539v-539h-141v741h187l246 -539v538h141v-740z" />
<glyph unicode="O" horiz-adv-x="770" d="M726 370q0 -171 -94.5 -276t-246.5 -105t-246.5 105t-94.5 276q0 172 94.5 277t246.5 105t246.5 -105t94.5 -277zM580 370q0 122 -55.5 193.5t-139.5 71.5q-85 0 -139.5 -71t-54.5 -194q0 -122 54.5 -193t139.5 -71q84 0 139.5 71.5t55.5 192.5z" />
<glyph unicode="P" horiz-adv-x="620" d="M598 520q0 -95 -68.5 -158t-177.5 -63h-122v-299h-141v741h263q109 0 177.5 -64t68.5 -157zM454 520q0 45 -30.5 74.5t-84.5 29.5h-109v-208h109q54 0 84.5 29.5t30.5 74.5z" />
<glyph unicode="Q" horiz-adv-x="770" d="M768 61l-94 -94l-126 63q-73 -41 -163 -41q-152 0 -246.5 105t-94.5 276q0 172 94.5 277t246.5 105t246.5 -105t94.5 -277q0 -151 -77 -249zM580 370q0 122 -55.5 193.5t-139.5 71.5q-85 0 -139.5 -71t-54.5 -194q0 -122 54.5 -193t139.5 -71q84 0 139.5 71.5t55.5 192.5 z" />
<glyph unicode="R" horiz-adv-x="656" d="M627 0h-150l-44 227q-16 80 -96 80h-107v-307h-141v741h272q115 0 176 -56.5t61 -141.5q0 -61 -36 -111t-94 -67q86 -15 106 -114zM454 526q0 44 -26.5 71t-80.5 27h-117v-201h105q53 0 86 28.5t33 74.5z" />
<glyph unicode="S" horiz-adv-x="572" d="M541 215q0 -102 -72.5 -166t-197.5 -64q-148 0 -241 93l84 84q62 -62 153 -62q56 0 91.5 31.5t35.5 77.5q0 30 -19.5 52t-50 35t-68 25t-75 28t-68 38.5t-50 61.5t-19.5 92q0 89 69 152t191 63q142 0 235 -93l-85 -84q-62 62 -141 62q-58 0 -90 -28t-32 -65 q0 -30 19.5 -51t50 -34.5t68 -25t75 -28t68 -39t50 -62.5t19.5 -93z" />
<glyph unicode="T" horiz-adv-x="578" d="M574 626h-215v-626h-140v626h-215v115h570v-115z" />
<glyph unicode="U" horiz-adv-x="737" d="M648 243q0 -122 -77 -190t-202 -68q-126 0 -203 68t-77 190v498h141v-498q0 -67 39 -104t100 -37q60 0 99 37t39 104v498h141v-498z" />
<glyph unicode="V" horiz-adv-x="685" d="M683 741l-266 -741h-148l-267 741h150l191 -571l190 571h150z" />
<glyph unicode="W" horiz-adv-x="951" d="M951 741l-180 -741h-175l-120 543l-120 -543h-176l-180 741h156l118 -550l120 550h163l120 -550l125 550h149z" />
<glyph unicode="X" horiz-adv-x="688" d="M681 0h-176l-161 277l-161 -277h-176l246 382l-231 359h177l145 -253l145 253h177l-231 -359z" />
<glyph unicode="Y" horiz-adv-x="616" d="M647 741l-269 -420v-321h-141v321l-268 420h175l164 -281l163 281h176z" />
<glyph unicode="Z" horiz-adv-x="552" d="M519 0h-486v109l311 515h-303v117h470v-110l-311 -514h319v-117z" />
<glyph unicode="[" horiz-adv-x="378" d="M330 -37h-241v815h241v-100h-119v-615h119v-100z" />
<glyph unicode="\" horiz-adv-x="326" d="M307 -37h-85l-203 815h85z" />
<glyph unicode="]" horiz-adv-x="378" d="M289 -37h-241v100h119v615h-119v100h241v-815z" />
<glyph unicode="^" horiz-adv-x="333" d="M314 585h-94l-53 97l-53 -97h-95l91 171h113z" />
<glyph unicode="_" horiz-adv-x="404" d="M404 0h-404v81h404v-81z" />
<glyph unicode="`" horiz-adv-x="333" d="M276 585h-73l-146 171h148z" />
<glyph unicode="a" horiz-adv-x="593" d="M511 0h-126v81q-42 -92 -161 -92q-75 0 -125.5 46t-50.5 111q0 74 63 123.5t187 49.5h83q0 43 -3 45q-3 33 -34 56.5t-75 23.5q-67 0 -118 -44l-75 75q86 73 205 73q107 0 168.5 -55.5t61.5 -142.5v-350zM381 219v16h-88q-55 0 -84 -23.5t-29 -55.5q0 -30 21 -49.5 t60 -19.5q53 0 86.5 36t33.5 96z" />
<glyph unicode="b" horiz-adv-x="643" d="M602 267q0 -124 -69 -201t-166 -77q-49 0 -96 25.5t-64 62.5v-77h-126v741h130v-280q19 37 64.5 60t91.5 23q97 0 166 -77t69 -200zM467 267q0 78 -36 123t-92 45q-55 0 -91.5 -45t-36.5 -123t36.5 -123.5t91.5 -45.5t91.5 45.5t36.5 123.5z" />
<glyph unicode="c" horiz-adv-x="516" d="M490 59q-81 -70 -181 -70q-113 0 -190.5 77.5t-77.5 200.5q0 122 77.5 199.5t190.5 77.5q100 0 181 -69l-79 -79q-39 39 -96 39q-59 0 -99 -47t-40 -121t40 -121.5t99 -47.5q58 0 96 40z" />
<glyph unicode="d" horiz-adv-x="643" d="M561 0h-126v77q-16 -37 -63 -62.5t-96 -25.5q-97 0 -166 77t-69 201q0 123 69 200t166 77q46 0 91.5 -23.5t63.5 -59.5v280h130v-741zM431 267q0 78 -36.5 123t-90.5 45q-56 0 -92 -45t-36 -123q0 -79 36.5 -124t91.5 -45t91 45.5t36 123.5z" />
<glyph unicode="e" horiz-adv-x="570" d="M539 231h-360q9 -62 48 -100t97 -38q68 0 107 41l76 -75q-80 -70 -190 -70q-120 0 -198 77t-78 201t70.5 200.5t181.5 76.5q109 0 177.5 -74.5t68.5 -212.5v-26zM404 324q-8 55 -36.5 87.5t-73.5 32.5q-43 0 -74 -32.5t-39 -87.5h223z" />
<glyph unicode="f" horiz-adv-x="407" d="M380 633q-28 11 -59 11q-71 0 -71 -63v-48h124v-103h-124v-430h-130v430h-101v103h101v67q0 62 45 105t120 43q49 0 95 -11v-104z" />
<glyph unicode="g" horiz-adv-x="643" d="M561 48q0 -104 -77.5 -174t-202.5 -70q-134 0 -211 77l74 74q50 -48 132 -48q67 0 111 39.5t44 101.5v41q-19 -37 -62.5 -61t-92.5 -24q-96 0 -165.5 75.5t-69.5 194.5t69.5 194.5t165.5 75.5q52 0 97 -26.5t62 -63.5v79h126v-485zM431 274q0 72 -36.5 116.5t-90.5 44.5 t-91 -44.5t-37 -116.5q0 -74 36 -117.5t92 -43.5q54 0 90.5 44t36.5 117z" />
<glyph unicode="h" d="M570 0h-129v315q0 60 -27 90t-77 30q-57 0 -91.5 -42.5t-34.5 -125.5v-267h-130v741h130v-284q19 39 61.5 63t101.5 24q88 0 142 -57t54 -154v-333z" />
<glyph unicode="i" horiz-adv-x="293" d="M213 615h-133v126h133v-126zM211 0h-130v533h130v-533z" />
<glyph unicode="j" horiz-adv-x="304" d="M224 615h-133v126h133v-126zM222 -44q0 -63 -45 -106t-120 -43q-53 0 -94 12v103q31 -11 58 -11q72 0 72 63v559h129v-577z" />
<glyph unicode="k" horiz-adv-x="581" d="M597 0h-164l-222 248v-248h-130v741h130v-443l211 235h159l-240 -259z" />
<glyph unicode="l" horiz-adv-x="293" d="M211 0h-130v741h130v-741z" />
<glyph unicode="m" horiz-adv-x="941" d="M859 0h-129v315q0 120 -89 120q-43 0 -74.5 -44t-31.5 -119v-272h-129v315q0 120 -89 120q-43 0 -74.5 -44t-31.5 -119v-272h-130v533h126v-83q41 94 147 94q61 0 101.5 -30.5t60.5 -76.5q52 107 162 107q82 0 131.5 -57t49.5 -152v-335z" />
<glyph unicode="n" d="M570 0h-129v315q0 60 -27 90t-77 30q-57 0 -91.5 -42.5t-34.5 -125.5v-267h-130v533h126v-82q18 42 62 67.5t105 25.5q88 0 142 -57t54 -154v-333z" />
<glyph unicode="o" horiz-adv-x="600" d="M559 267q0 -126 -73 -202t-186 -76t-186 76t-73 202q0 125 73 201t186 76t186 -76t73 -201zM424 267q0 79 -34.5 123.5t-89.5 44.5q-54 0 -89 -45t-35 -123q0 -79 35 -124t89 -45t89 45t35 124z" />
<glyph unicode="p" horiz-adv-x="643" d="M602 267q0 -124 -69 -201t-166 -77q-46 0 -91.5 23t-64.5 58v-255h-130v718h126v-79q17 38 63.5 64t96.5 26q97 0 166 -77t69 -200zM467 267q0 78 -36 123t-92 45q-55 0 -91.5 -45t-36.5 -123t36.5 -123.5t91.5 -45.5t91.5 45.5t36.5 123.5z" />
<glyph unicode="q" horiz-adv-x="643" d="M561 -185h-130v255q-18 -35 -63.5 -58t-91.5 -23q-97 0 -166 77t-69 201q0 123 69 200t166 77q49 0 96 -26t63 -64v79h126v-718zM431 267q0 78 -36.5 123t-90.5 45q-56 0 -92 -45t-36 -123q0 -79 36.5 -124t91.5 -45t91 45.5t36 123.5z" />
<glyph unicode="r" horiz-adv-x="407" d="M391 426q-19 2 -35 2q-27 0 -48 -5q-47 -10 -72 -50.5t-25 -107.5v-265h-130v533h126v-81q44 92 184 92v-118z" />
<glyph unicode="s" horiz-adv-x="461" d="M428 149q0 -67 -55 -115.5t-158 -48.5q-113 0 -187 74l75 75q47 -45 112 -45q40 0 63 16t23 41q0 28 -26.5 45.5t-64.5 29.5t-76 28t-64.5 51t-26.5 89q0 63 54.5 111t145.5 48q109 0 182 -73l-75 -76q-45 45 -104 45q-35 0 -55 -17t-20 -38q0 -23 26.5 -38t64.5 -27.5 t75.5 -29.5t64 -54t26.5 -91z" />
<glyph unicode="t" horiz-adv-x="407" d="M380 4q-39 -11 -95 -11q-75 0 -120 43t-45 105v289h-101v103h101v152h130v-152h124v-103h-124v-271q0 -63 71 -63q26 0 59 11v-103z" />
<glyph unicode="u" d="M570 0h-126v82q-18 -42 -62 -67.5t-104 -25.5q-88 0 -142.5 57.5t-54.5 153.5v333h130v-314q0 -121 104 -121q57 0 91.5 42.5t34.5 126.5v266h129v-533z" />
<glyph unicode="v" horiz-adv-x="564" d="M564 533l-213 -533h-142l-209 533h143l136 -397l143 397h142z" />
<glyph unicode="w" horiz-adv-x="813" d="M806 533l-152 -533h-157l-91 336l-90 -336h-157l-152 533h144l92 -391l106 391h117l104 -391l91 391h145z" />
<glyph unicode="x" horiz-adv-x="548" d="M533 0h-152l-107 176l-107 -176h-152l183 274l-175 259h156l95 -158l95 158h156l-175 -259z" />
<glyph unicode="y" horiz-adv-x="564" d="M564 533l-253 -634q-14 -35 -52.5 -63.5t-101.5 -28.5q-53 0 -94 12v103q31 -11 58 -11q51 0 64 30q9 3 26 55l-211 537h143l136 -397l143 397h142z" />
<glyph unicode="z" horiz-adv-x="470" d="M433 0h-396v95l233 335h-226v103h382v-96l-233 -331h240v-106z" />
<glyph unicode="{" horiz-adv-x="396" d="M367 -44h-102q-49 0 -84 34.5t-35 83.5v159q0 34 -23.5 58t-57.5 24h-26v111h26q33 0 57 24t24 57v160q0 49 35 83.5t84 34.5h102v-96h-50q-20 0 -34 -14t-14 -34v-152q0 -45 -30.5 -79t-73.5 -40q42 -5 73 -39t31 -79v-152q0 -20 14 -34t34 -14h50v-96z" />
<glyph unicode="|" horiz-adv-x="326" d="M206 -185h-86v926h86v-926z" />
<glyph unicode="}" horiz-adv-x="396" d="M357 315h-26q-34 0 -57.5 -24t-23.5 -58v-159q0 -49 -35 -83.5t-84 -34.5h-102v96h51q20 0 34 14t14 34v152q0 45 30.5 79t72.5 39q-42 6 -72.5 40t-30.5 79v152q0 19 -14 33.5t-34 14.5h-51v96h102q49 0 84 -34.5t35 -83.5v-160q0 -33 24 -57t57 -24h26v-111z" />
<glyph unicode="~" horiz-adv-x="431" d="M407 325l-42 -42q-35 -35 -86 -35t-86 35l-13 13q-11 11 -28 11t-29 -12l-40 -41l-59 59l42 42q35 35 86 35q50 0 87 -35l12 -13q11 -11 28 -11t29 12l40 40z" />
<glyph unicode="&#xa1;" horiz-adv-x="307" d="M224 606h-141v135h141v-135zM233 0h-159l32 544h96z" />
<glyph unicode="&#xa2;" horiz-adv-x="507" d="M485 162q-75 -64 -168 -69v-93h-61v96q-97 17 -159 91t-62 183t62 183.5t159 90.5v97h61v-93q91 -4 168 -69l-79 -80q-37 37 -89 40v-337q51 3 89 39zM256 217v307q-39 -17 -62.5 -58t-23.5 -96t23.5 -95.5t62.5 -57.5z" />
<glyph unicode="&#xa3;" horiz-adv-x="584" d="M550 0h-513v117h74v198h-74v63h74v131q0 102 68.5 172.5t172.5 70.5q111 0 196 -85l-94 -94q-47 47 -102 47q-45 0 -75.5 -33t-30.5 -78v-131h115v-63h-115v-198h304v-117z" />
<glyph unicode="&#xa5;" horiz-adv-x="638" d="M658 741l-230 -358h136v-63h-175v-52h175v-63h-175v-205h-140v205h-175v63h175v52h-175v63h136l-230 358h176l163 -281l163 281h176z" />
<glyph unicode="&#xa6;" horiz-adv-x="326" d="M206 426h-86v352h86v-352zM206 -37h-86v352h86v-352z" />
<glyph unicode="&#xa7;" horiz-adv-x="489" d="M445 353q0 -65 -49 -110q34 -41 34 -99q0 -63 -54.5 -111t-145.5 -48q-108 0 -182 74l75 75q47 -45 104 -45q35 0 55 17t20 38q0 23 -26.5 38.5t-64.5 27.5t-76 29t-64.5 54t-26.5 91q0 65 49 110q-33 40 -33 99q0 63 54 111t146 48q108 0 181 -73l-75 -76 q-47 45 -104 45q-35 0 -55 -17t-20 -38q0 -23 26.5 -38.5t64.5 -27.5t76 -29t64.5 -54t26.5 -91zM317 350q0 8 -1.5 15t-6.5 13l-9 10q-3 5 -12 9.5t-14 7.5t-16.5 7.5t-17 7t-20 7t-19.5 6.5q-29 -17 -29 -46q0 -8 1.5 -15t6.5 -13l8 -11q4 -4 13 -8.5t14 -7.5t16.5 -7.5 t17 -7t20 -7t19.5 -6.5q29 17 29 46z" />
<glyph unicode="&#xa8;" horiz-adv-x="307" d="M304 617h-113v122h113v-122zM117 617h-113v122h113v-122z" />
<glyph unicode="&#xa9;" horiz-adv-x="867" d="M804 370q0 -153 -108.5 -261.5t-262.5 -108.5q-153 0 -261.5 108.5t-108.5 261.5q0 154 108.5 262.5t261.5 108.5q154 0 262.5 -108.5t108.5 -262.5zM743 370q0 128 -91 219t-219 91t-218.5 -91t-90.5 -219t90.5 -218.5t218.5 -90.5t219 90.5t91 218.5zM582 190 q-56 -54 -143 -54q-98 0 -158 64.5t-60 169.5q0 106 60 170.5t158 64.5q88 0 143 -55l-51 -50q-35 35 -89 35q-58 0 -95.5 -44.5t-37.5 -120.5t37.5 -120t95.5 -44q54 0 89 35z" />
<glyph unicode="&#xaa;" horiz-adv-x="426" d="M363 370h-87v57q-29 -64 -112 -64q-53 0 -88 31.5t-35 77.5q0 51 44 85t130 34h58q0 31 -3 32q-2 24 -23.5 40t-52.5 16q-47 0 -81 -31l-52 52q59 51 142 51q74 0 117 -39t43 -99v-243zM273 522v12h-62q-38 0 -58 -17t-20 -39q0 -20 14.5 -33.5t42.5 -13.5q37 0 60 25 t23 66z" />
<glyph unicode="&#xab;" horiz-adv-x="524" d="M288 89h-129l-103 207l103 208h129l-104 -208zM487 89h-129l-104 207l104 208h129l-104 -208z" />
<glyph unicode="&#xad;" horiz-adv-x="344" d="M300 231h-256v93h256v-93z" />
<glyph unicode="&#xae;" horiz-adv-x="867" d="M804 370q0 -153 -108.5 -261.5t-262.5 -108.5q-153 0 -261.5 108.5t-108.5 261.5q0 154 108.5 262.5t261.5 108.5q154 0 262.5 -108.5t108.5 -262.5zM743 370q0 128 -91 219t-219 91t-218.5 -91t-90.5 -219t90.5 -218.5t218.5 -90.5t219 90.5t91 218.5zM609 143h-89 l-28 140q-11 50 -59 50h-69v-190h-84v455h166q70 0 107.5 -34.5t37.5 -86.5q0 -37 -22 -68t-58 -41q53 -10 65 -70zM364 528v-125h66q33 0 54 18t21 46q0 27 -16.5 44t-50.5 17h-74z" />
<glyph unicode="&#xaf;" horiz-adv-x="333" d="M287 644h-241v87h241v-87z" />
<glyph unicode="&#xb0;" horiz-adv-x="378" d="M341 600q0 -63 -44.5 -107.5t-107.5 -44.5t-107.5 44.5t-44.5 107.5t44.5 107.5t107.5 44.5t107.5 -44.5t44.5 -107.5zM259 600q0 29 -20.5 49.5t-49.5 20.5t-49.5 -20.5t-20.5 -49.5t20.5 -49.5t49.5 -20.5t49.5 20.5t20.5 49.5z" />
<glyph unicode="&#xb1;" horiz-adv-x="563" d="M522 380h-194v-195h-93v195h-194v92h194v195h93v-195h194v-92zM522 61h-481v93h481v-93z" />
<glyph unicode="&#xb2;" horiz-adv-x="397" d="M360 247h-327v63q124 113 172 174.5t48 118.5q0 29 -20.5 49.5t-55.5 20.5q-45 0 -86 -41l-56 56q61 61 147 61q74 0 118 -40.5t44 -103.5q0 -116 -181 -281h197v-77z" />
<glyph unicode="&#xb3;" horiz-adv-x="414" d="M367 385q0 -62 -51.5 -104.5t-130.5 -42.5q-96 0 -148 61l56 56q40 -40 90 -40q40 0 65 21t25 52t-25 52.5t-65 21.5h-46v77h46q40 0 62 19t22 48t-22.5 48t-59.5 19q-45 0 -86 -41l-56 56q61 61 142 61q74 0 122.5 -40t48.5 -101q0 -39 -23.5 -68.5t-51.5 -38.5 q34 -11 60 -44.5t26 -71.5z" />
<glyph unicode="&#xb4;" horiz-adv-x="333" d="M276 756l-146 -171h-73l72 171h147z" />
<glyph unicode="&#xb5;" d="M570 0h-126v82q-18 -42 -62 -67.5t-104 -25.5q-41 0 -67 21v-195h-130v718h130v-314q0 -121 104 -121q57 0 91.5 42.5t34.5 126.5v266h129v-533z" />
<glyph unicode="&#x3bc;" d="M570 0h-126v82q-18 -42 -62 -67.5t-104 -25.5q-41 0 -67 21v-195h-130v718h130v-314q0 -121 104 -121q57 0 91.5 42.5t34.5 126.5v266h129v-533z" />
<glyph unicode="&#xb6;" horiz-adv-x="637" d="M559 -185h-128v822h-70v-822h-128v518q-84 0 -143.5 60t-59.5 144t59.5 144t143.5 60h326v-926z" />
<glyph unicode="&#xb7;" horiz-adv-x="289" d="M215 229h-141v135h141v-135z" />
<glyph unicode="&#xb8;" horiz-adv-x="348" d="M278 -104q0 -34 -34 -59.5t-89 -25.5t-96 36l37 37q23 -21 53 -21q21 0 32 8.5t11 21.5q0 31 -73 31l38 76h69l-18 -35q29 -4 49.5 -22.5t20.5 -46.5z" />
<glyph unicode="&#xb9;" horiz-adv-x="331" d="M227 247h-88v402q-14 -14 -44 -27.5t-62 -17.5v77q29 4 63.5 22.5t53.5 37.5h77v-494z" />
<glyph unicode="&#xba;" horiz-adv-x="434" d="M217 748q79 0 129.5 -52.5t50.5 -139.5q0 -88 -50.5 -140.5t-129.5 -52.5t-129.5 52.5t-50.5 140.5q0 87 50.5 139.5t129.5 52.5zM303 556q0 54 -24 85.5t-62 31.5t-62 -31.5t-24 -85.5q0 -55 24 -86t62 -31t62 31t24 86z" />
<glyph unicode="&#xbb;" horiz-adv-x="524" d="M270 296l-103 -207h-129l103 207l-103 208h129zM469 296l-104 -207h-129l104 207l-104 208h129z" />
<glyph unicode="&#xbc;" horiz-adv-x="840" d="M227 247h-88v402q-14 -14 -44 -27.5t-62 -17.5v77q29 4 63.5 22.5t53.5 37.5h77v-494zM806 111h-71v-111h-87v111h-219v81l214 302h92v-305h71v-78zM678 778l-481 -815h-91l481 815h91zM648 189v190l-132 -190h132z" />
<glyph unicode="&#xbd;" horiz-adv-x="887" d="M227 247h-88v402q-14 -14 -44 -27.5t-62 -17.5v77q29 4 63.5 22.5t53.5 37.5h77v-494zM853 0h-326v63q124 113 171.5 174.5t47.5 118.5q0 29 -20.5 49.5t-54.5 20.5q-46 0 -86 -40l-57 56q60 60 148 60q73 0 117 -40.5t44 -103.5q0 -116 -181 -280h197v-78zM678 778 l-481 -815h-91l481 815h91z" />
<glyph unicode="&#xbe;" horiz-adv-x="930" d="M367 385q0 -62 -51.5 -104.5t-130.5 -42.5q-96 0 -148 61l56 56q40 -40 90 -40q40 0 65 21t25 52t-25 52.5t-65 21.5h-46v77h46q40 0 62 19t22 48t-22.5 48t-59.5 19q-45 0 -86 -41l-56 56q61 61 142 61q74 0 122.5 -40t48.5 -101q0 -39 -23.5 -68.5t-51.5 -38.5 q34 -11 60 -44.5t26 -71.5zM896 111h-71v-111h-87v111h-219v81l214 302h92v-305h71v-78zM768 778l-481 -815h-91l481 815h91zM738 189v190l-132 -190h132z" />
<glyph unicode="&#xbf;" horiz-adv-x="528" d="M367 606h-141v135h141v-135zM506 78q-93 -91 -219 -91q-110 0 -178 61t-68 150q0 87 77 162q3 6 26 26.5t25 25.5q35 34 49.5 62t14.5 70h126q0 -105 -58 -167q-2 -6 -25 -26.5t-25 -25.5q-24 -25 -34 -37t-20 -35.5t-10 -50.5q0 -40 30 -70t76 -30q68 0 128 60z" />
<glyph unicode="&#xc0;" horiz-adv-x="704" d="M704 0h-150l-60 170h-285l-59 -170h-150l276 741h152zM455 287l-103 295l-103 -295h206zM433 783h-73l-145 171h147z" />
<glyph unicode="&#xc1;" horiz-adv-x="704" d="M704 0h-150l-60 170h-285l-59 -170h-150l276 741h152zM455 287l-103 295l-103 -295h206zM487 946l-146 -170h-73l71 170h148z" />
<glyph unicode="&#xc2;" horiz-adv-x="704" d="M704 0h-150l-60 170h-285l-59 -170h-150l276 741h152zM455 287l-103 295l-103 -295h206zM500 776h-95l-53 97l-53 -97h-95l91 170h114z" />
<glyph unicode="&#xc3;" horiz-adv-x="704" d="M704 0h-150l-60 170h-285l-59 -170h-150l276 741h152zM455 287l-103 295l-103 -295h206zM540 897q0 -51 -36 -87t-87 -36t-86 35l-13 13q-11 11 -28 11q-16 0 -28 -11.5t-12 -28.5h-83q0 51 36 87t87 36q52 0 87 -35l13 -13q10 -11 27 -11t28.5 11.5t11.5 28.5h83z" />
<glyph unicode="&#xc4;" horiz-adv-x="704" d="M502 800h-113v122h113v-122zM315 800h-113v122h113v-122zM704 0h-150l-60 170h-285l-59 -170h-150l276 741h152zM455 287l-103 295l-103 -295h206z" />
<glyph unicode="&#xc5;" horiz-adv-x="704" d="M704 0h-150l-60 170h-285l-59 -170h-150l276 741h152zM455 287l-103 295l-103 -295h206zM437 852q0 -35 -25 -60t-60 -25t-60 25t-25 60t25 60t60 25t60 -25t25 -60zM404 852q0 21 -15.5 36.5t-36.5 15.5q-22 0 -37 -15.5t-15 -36.5q0 -22 15 -37t37 -15q21 0 36.5 15 t15.5 37z" />
<glyph unicode="&#xc6;" horiz-adv-x="876" d="M820 0h-409v170h-227l-95 -170h-163l441 741h446v-117h-261v-193h254v-117h-254v-197h268v-117zM411 287v285l-162 -285h162z" />
<glyph unicode="&#xc7;" horiz-adv-x="650" d="M633 78q-81 -81 -208 -88l-12 -25q29 -4 49.5 -22.5t20.5 -46.5q0 -34 -34 -59.5t-89 -25.5q-56 0 -96 36l37 37q23 -21 53 -21q21 0 32 8.5t11 21.5q0 31 -73 31l33 67q-142 14 -227.5 116.5t-85.5 262.5q0 172 98 277t258 105q142 0 233 -89l-85 -84q-56 56 -144 56 q-93 0 -153 -71.5t-60 -193.5t60 -193t153 -71q88 0 144 56z" />
<glyph unicode="&#xc8;" horiz-adv-x="554" d="M498 0h-409v741h402v-117h-261v-193h253v-117h-253v-197h268v-117zM363 776h-73l-145 170h147z" />
<glyph unicode="&#xc9;" horiz-adv-x="554" d="M498 0h-409v741h402v-117h-261v-193h253v-117h-253v-197h268v-117zM426 946l-146 -170h-73l71 170h148z" />
<glyph unicode="&#xca;" horiz-adv-x="554" d="M498 0h-409v741h402v-117h-261v-193h253v-117h-253v-197h268v-117zM440 776h-95l-53 97l-53 -97h-95l91 170h114z" />
<glyph unicode="&#xcb;" horiz-adv-x="554" d="M446 800h-113v122h113v-122zM259 800h-113v122h113v-122zM498 0h-409v741h402v-117h-261v-193h253v-117h-253v-197h268v-117z" />
<glyph unicode="&#xcc;" horiz-adv-x="319" d="M230 0h-141v741h141v-741zM239 776h-73l-146 170h148z" />
<glyph unicode="&#xcd;" horiz-adv-x="319" d="M230 0h-141v741h141v-741zM298 946l-145 -170h-73l71 170h147z" />
<glyph unicode="&#xce;" horiz-adv-x="319" d="M230 0h-141v741h141v-741zM307 776h-95l-53 97l-53 -97h-95l92 170h113z" />
<glyph unicode="&#xcf;" horiz-adv-x="319" d="M309 800h-113v122h113v-122zM122 800h-113v122h113v-122zM230 0h-141v741h141v-741z" />
<glyph unicode="&#xd0;" horiz-adv-x="735" d="M691 370q0 -177 -107 -273.5t-275 -96.5h-220v324h-80v93h80v324h220q170 0 276 -96.5t106 -274.5zM544 370q0 122 -66 188t-172 66h-76v-207h79v-93h-79v-207h76q106 0 172 66t66 187z" />
<glyph unicode="&#xd1;" horiz-adv-x="752" d="M663 0h-187l-246 539v-539h-141v741h187l246 -539v538h141v-740zM562 897q0 -51 -36 -87t-87 -36q-49 0 -86 35l-13 13q-11 11 -27 11q-17 0 -28.5 -11.5t-11.5 -28.5h-83q0 51 36 87t87 36t86 -35l13 -13q10 -11 27 -11t28.5 11.5t11.5 28.5h83z" />
<glyph unicode="&#xd2;" horiz-adv-x="770" d="M726 370q0 -171 -94.5 -276t-246.5 -105t-246.5 105t-94.5 276q0 172 94.5 277t246.5 105t246.5 -105t94.5 -277zM580 370q0 122 -55.5 193.5t-139.5 71.5q-85 0 -139.5 -71t-54.5 -194q0 -122 54.5 -193t139.5 -71q84 0 139.5 71.5t55.5 192.5zM442 776h-73l-145 170 h147z" />
<glyph unicode="&#xd3;" horiz-adv-x="770" d="M726 370q0 -171 -94.5 -276t-246.5 -105t-246.5 105t-94.5 276q0 172 94.5 277t246.5 105t246.5 -105t94.5 -277zM580 370q0 122 -55.5 193.5t-139.5 71.5q-85 0 -139.5 -71t-54.5 -194q0 -122 54.5 -193t139.5 -71q84 0 139.5 71.5t55.5 192.5zM546 946l-146 -170h-73 l72 170h147z" />
<glyph unicode="&#xd4;" horiz-adv-x="770" d="M726 370q0 -171 -94.5 -276t-246.5 -105t-246.5 105t-94.5 276q0 172 94.5 277t246.5 105t246.5 -105t94.5 -277zM580 370q0 122 -55.5 193.5t-139.5 71.5q-85 0 -139.5 -71t-54.5 -194q0 -122 54.5 -193t139.5 -71q84 0 139.5 71.5t55.5 192.5zM533 776h-95l-53 97 l-53 -97h-95l92 170h113z" />
<glyph unicode="&#xd5;" horiz-adv-x="770" d="M726 370q0 -171 -94.5 -276t-246.5 -105t-246.5 105t-94.5 276q0 172 94.5 277t246.5 105t246.5 -105t94.5 -277zM580 370q0 122 -55.5 193.5t-139.5 71.5q-85 0 -139.5 -71t-54.5 -194q0 -122 54.5 -193t139.5 -71q84 0 139.5 71.5t55.5 192.5zM571 897q0 -51 -36 -87 t-87 -36t-86 35l-13 13q-11 11 -28 11t-28.5 -11.5t-11.5 -28.5h-82q0 51 36 87t86 36q52 0 87 -35l13 -13q10 -11 27 -11q16 0 28 11.5t12 28.5h83z" />
<glyph unicode="&#xd6;" horiz-adv-x="770" d="M535 800h-113v122h113v-122zM348 800h-113v122h113v-122zM726 370q0 -171 -94.5 -276t-246.5 -105t-246.5 105t-94.5 276q0 172 94.5 277t246.5 105t246.5 -105t94.5 -277zM580 370q0 122 -55.5 193.5t-139.5 71.5q-85 0 -139.5 -71t-54.5 -194q0 -122 54.5 -193 t139.5 -71q84 0 139.5 71.5t55.5 192.5z" />
<glyph unicode="&#xd7;" horiz-adv-x="563" d="M501 208l-65 -65l-155 154l-154 -154l-66 65l155 155l-155 154l66 66l154 -155l155 155l65 -66l-154 -154z" />
<glyph unicode="&#xd8;" horiz-adv-x="770" d="M726 370q0 -171 -94.5 -276t-246.5 -105q-97 0 -173 45l-47 -71h-100l81 123q-102 107 -102 284q0 172 94.5 277t246.5 105q97 0 173 -45l48 71h100l-82 -123q102 -107 102 -285zM488 600q-46 35 -103 35q-85 0 -139.5 -71t-54.5 -194q0 -96 35 -163zM580 370 q0 95 -37 163l-261 -393q44 -34 103 -34q84 0 139.5 71.5t55.5 192.5z" />
<glyph unicode="&#xd9;" horiz-adv-x="737" d="M648 243q0 -122 -77 -190t-202 -68q-126 0 -203 68t-77 190v498h141v-498q0 -67 39 -104t100 -37q60 0 99 37t39 104v498h141v-498zM437 776h-73l-145 170h147z" />
<glyph unicode="&#xda;" horiz-adv-x="737" d="M648 243q0 -122 -77 -190t-202 -68q-126 0 -203 68t-77 190v498h141v-498q0 -67 39 -104t100 -37q60 0 99 37t39 104v498h141v-498zM520 946l-146 -170h-73l72 170h147z" />
<glyph unicode="&#xdb;" horiz-adv-x="737" d="M648 243q0 -122 -77 -190t-202 -68q-126 0 -203 68t-77 190v498h141v-498q0 -67 39 -104t100 -37q60 0 99 37t39 104v498h141v-498zM516 776h-95l-52 97l-53 -97h-95l91 170h113z" />
<glyph unicode="&#xdc;" horiz-adv-x="737" d="M648 243q0 -122 -77 -190t-202 -68q-126 0 -203 68t-77 190v498h141v-498q0 -67 39 -104t100 -37q60 0 99 37t39 104v498h141v-498zM519 800h-113v122h113v-122zM331 800h-112v122h112v-122z" />
<glyph unicode="&#xdd;" horiz-adv-x="616" d="M647 741l-269 -420v-321h-141v321l-268 420h175l164 -281l163 281h176zM447 946l-145 -170h-73l71 170h147z" />
<glyph unicode="&#xde;" horiz-adv-x="620" d="M230 741v-152h122q109 0 177.5 -62.5t68.5 -156.5q0 -95 -68 -157t-178 -62h-122v-151h-141v741h141zM454 370q0 44 -30.5 73.5t-84.5 29.5h-109v-205h109q54 0 84.5 28.5t30.5 73.5z" />
<glyph unicode="&#xdf;" horiz-adv-x="629" d="M577 220q0 -102 -69 -166.5t-188 -64.5q-34 0 -64 7v108q24 -8 53 -8q59 0 94 35.5t35 86.5t-34 86t-91 35h-57v104h57q47 0 75.5 29t28.5 71q0 43 -29 72t-73 29t-74 -30.5t-30 -73.5v-540h-130v538q0 93 63 153.5t173 60.5q106 0 170.5 -56t64.5 -142 q0 -57 -30.5 -98.5t-74.5 -62.5q58 -20 94 -67t36 -106z" />
<glyph unicode="&#xe0;" horiz-adv-x="593" d="M511 0h-126v81q-42 -92 -161 -92q-75 0 -125.5 46t-50.5 111q0 74 63 123.5t187 49.5h83q0 43 -3 45q-3 33 -34 56.5t-75 23.5q-67 0 -118 -44l-75 75q86 73 205 73q107 0 168.5 -55.5t61.5 -142.5v-350zM381 219v16h-88q-55 0 -84 -23.5t-29 -55.5q0 -30 21 -49.5 t60 -19.5q53 0 86.5 36t33.5 96zM361 585h-72l-146 171h147z" />
<glyph unicode="&#xe1;" horiz-adv-x="593" d="M511 0h-126v81q-42 -92 -161 -92q-75 0 -125.5 46t-50.5 111q0 74 63 123.5t187 49.5h83q0 43 -3 45q-3 33 -34 56.5t-75 23.5q-67 0 -118 -44l-75 75q86 73 205 73q107 0 168.5 -55.5t61.5 -142.5v-350zM381 219v16h-88q-55 0 -84 -23.5t-29 -55.5q0 -30 21 -49.5 t60 -19.5q53 0 86.5 36t33.5 96zM427 756l-145 -171h-73l71 171h147z" />
<glyph unicode="&#xe2;" horiz-adv-x="593" d="M511 0h-126v81q-42 -92 -161 -92q-75 0 -125.5 46t-50.5 111q0 74 63 123.5t187 49.5h83q0 43 -3 45q-3 33 -34 56.5t-75 23.5q-67 0 -118 -44l-75 75q86 73 205 73q107 0 168.5 -55.5t61.5 -142.5v-350zM381 219v16h-88q-55 0 -84 -23.5t-29 -55.5q0 -30 21 -49.5 t60 -19.5q53 0 86.5 36t33.5 96zM431 585h-95l-53 97l-53 -97h-94l91 171h113z" />
<glyph unicode="&#xe3;" horiz-adv-x="593" d="M511 0h-126v81q-42 -92 -161 -92q-75 0 -125.5 46t-50.5 111q0 74 63 123.5t187 49.5h83q0 43 -3 45q-3 33 -34 56.5t-75 23.5q-67 0 -118 -44l-75 75q86 73 205 73q107 0 168.5 -55.5t61.5 -142.5v-350zM381 219v16h-88q-55 0 -84 -23.5t-29 -55.5q0 -30 21 -49.5 t60 -19.5q53 0 86.5 36t33.5 96zM471 732q0 -51 -36 -87t-86 -36t-87 35l-13 13q-10 11 -27 11q-16 0 -28 -12t-12 -28h-83q0 51 36 87t87 36t86 -35l13 -13q11 -11 28 -11q16 0 28 12t12 28h82z" />
<glyph unicode="&#xe4;" horiz-adv-x="593" d="M433 617h-113v122h113v-122zM246 617h-113v122h113v-122zM511 0h-126v81q-42 -92 -161 -92q-75 0 -125.5 46t-50.5 111q0 74 63 123.5t187 49.5h83q0 43 -3 45q-3 33 -34 56.5t-75 23.5q-67 0 -118 -44l-75 75q86 73 205 73q107 0 168.5 -55.5t61.5 -142.5v-350zM381 219 v16h-88q-55 0 -84 -23.5t-29 -55.5q0 -30 21 -49.5t60 -19.5q53 0 86.5 36t33.5 96z" />
<glyph unicode="&#xe5;" horiz-adv-x="593" d="M511 0h-126v81q-42 -92 -161 -92q-75 0 -125.5 46t-50.5 111q0 74 63 123.5t187 49.5h83q0 43 -3 45q-3 33 -34 56.5t-75 23.5q-67 0 -118 -44l-75 75q86 73 205 73q107 0 168.5 -55.5t61.5 -142.5v-350zM381 219v16h-88q-55 0 -84 -23.5t-29 -55.5q0 -30 21 -49.5 t60 -19.5q53 0 86.5 36t33.5 96zM365 674q0 -35 -25 -60t-60 -25q-36 0 -61 25t-25 60t25 60t61 25q35 0 60 -25t25 -60zM331 674q0 22 -15 37t-36 15q-22 0 -37 -15t-15 -37q0 -21 15 -36.5t37 -15.5q21 0 36 15.5t15 36.5z" />
<glyph unicode="&#xe6;" horiz-adv-x="906" d="M874 231h-360q9 -62 48 -100t97 -38q67 0 108 41l75 -75q-80 -70 -190 -70q-70 0 -126 31t-88 83q-24 -53 -77.5 -83.5t-127.5 -30.5q-82 0 -133.5 45.5t-51.5 111.5q0 74 63 123.5t187 49.5h83q0 43 -3 45q-3 33 -34 56.5t-75 23.5q-67 0 -118 -44l-75 75q86 73 205 73 q122 0 178 -74q65 70 169 70q109 0 177.5 -74.5t68.5 -212.5v-26zM739 324q-8 55 -36.5 87.5t-72.5 32.5t-75 -32.5t-39 -87.5h223zM381 219v16h-88q-55 0 -84 -23.5t-29 -55.5q0 -30 21 -49.5t60 -19.5q53 0 86.5 36t33.5 96z" />
<glyph unicode="&#xe7;" horiz-adv-x="516" d="M490 59q-71 -63 -156 -69l-13 -25q29 -4 49.5 -22.5t20.5 -46.5q0 -34 -34 -59.5t-89 -25.5t-96 36l37 37q23 -21 53 -21q21 0 32 8.5t11 21.5q0 31 -73 31l34 68q-98 15 -161.5 90t-63.5 185q0 122 77.5 199.5t190.5 77.5q100 0 181 -69l-79 -79q-39 39 -96 39 q-59 0 -99 -47t-40 -121t40 -121.5t99 -47.5q58 0 96 40z" />
<glyph unicode="&#xe8;" horiz-adv-x="570" d="M539 231h-360q9 -62 48 -100t97 -38q68 0 107 41l76 -75q-80 -70 -190 -70q-120 0 -198 77t-78 201t70.5 200.5t181.5 76.5q109 0 177.5 -74.5t68.5 -212.5v-26zM404 324q-8 55 -36.5 87.5t-73.5 32.5q-43 0 -74 -32.5t-39 -87.5h223zM367 585h-73l-145 171h147z" />
<glyph unicode="&#xe9;" horiz-adv-x="570" d="M539 231h-360q9 -62 48 -100t97 -38q68 0 107 41l76 -75q-80 -70 -190 -70q-120 0 -198 77t-78 201t70.5 200.5t181.5 76.5q109 0 177.5 -74.5t68.5 -212.5v-26zM404 324q-8 55 -36.5 87.5t-73.5 32.5q-43 0 -74 -32.5t-39 -87.5h223zM439 756l-146 -171h-73l71 171h148z " />
<glyph unicode="&#xea;" horiz-adv-x="570" d="M539 231h-360q9 -62 48 -100t97 -38q68 0 107 41l76 -75q-80 -70 -190 -70q-120 0 -198 77t-78 201t70.5 200.5t181.5 76.5q109 0 177.5 -74.5t68.5 -212.5v-26zM404 324q-8 55 -36.5 87.5t-73.5 32.5q-43 0 -74 -32.5t-39 -87.5h223zM439 585h-95l-53 97l-53 -97h-95 l91 171h113z" />
<glyph unicode="&#xeb;" horiz-adv-x="570" d="M443 617h-113v122h113v-122zM256 617h-113v122h113v-122zM539 231h-360q9 -62 48 -100t97 -38q68 0 107 41l76 -75q-80 -70 -190 -70q-120 0 -198 77t-78 201t70.5 200.5t181.5 76.5q109 0 177.5 -74.5t68.5 -212.5v-26zM404 324q-8 55 -36.5 87.5t-73.5 32.5 q-43 0 -74 -32.5t-39 -87.5h223z" />
<glyph unicode="&#xec;" horiz-adv-x="293" d="M215 585h-73l-146 171h148zM211 0h-130v533h130v-533z" />
<glyph unicode="&#xed;" horiz-adv-x="293" d="M296 756l-145 -171h-73l71 171h147zM211 0h-130v533h130v-533z" />
<glyph unicode="&#xee;" horiz-adv-x="293" d="M294 585h-95l-53 97l-53 -97h-94l91 171h113zM211 0h-130v533h130v-533z" />
<glyph unicode="&#xef;" horiz-adv-x="293" d="M296 617h-113v122h113v-122zM109 617h-113v122h113v-122zM211 0h-130v533h130v-533z" />
<glyph unicode="&#xf0;" d="M594 370q0 -175 -72 -278t-209 -103q-113 0 -188.5 69.5t-75.5 174.5q0 104 72.5 173.5t184.5 69.5q51 0 94 -24.5t60 -53.5q-2 96 -35 154l-47 -47l-66 65l48 48q-33 19 -73 19q-79 0 -137 -58l-85 84q91 89 220 89q94 0 164 -45l46 46l65 -65l-43 -44q77 -100 77 -274z M444 233q0 55 -36 94.5t-95 39.5t-95 -39.5t-36 -94.5t36 -95t95 -40t95 40t36 95z" />
<glyph unicode="&#xf1;" d="M570 0h-129v315q0 60 -27 90t-77 30q-57 0 -91.5 -42.5t-34.5 -125.5v-267h-130v533h126v-82q18 42 62 67.5t105 25.5q88 0 142 -57t54 -154v-333zM512 732q0 -51 -36 -87t-87 -36t-86 35l-13 13q-11 11 -28 11q-16 0 -28 -12t-12 -28h-83q0 51 36 87t87 36q52 0 87 -35 l12 -13q11 -11 28 -11t28.5 12t11.5 28h83z" />
<glyph unicode="&#xf2;" horiz-adv-x="600" d="M559 267q0 -126 -73 -202t-186 -76t-186 76t-73 202q0 125 73 201t186 76t186 -76t73 -201zM424 267q0 79 -34.5 123.5t-89.5 44.5q-54 0 -89 -45t-35 -123q0 -79 35 -124t89 -45t89 45t35 124zM373 585h-73l-146 171h148z" />
<glyph unicode="&#xf3;" horiz-adv-x="600" d="M559 267q0 -126 -73 -202t-186 -76t-186 76t-73 202q0 125 73 201t186 76t186 -76t73 -201zM424 267q0 79 -34.5 123.5t-89.5 44.5q-54 0 -89 -45t-35 -123q0 -79 35 -124t89 -45t89 45t35 124zM446 756l-146 -171h-73l71 171h148z" />
<glyph unicode="&#xf4;" horiz-adv-x="600" d="M559 267q0 -126 -73 -202t-186 -76t-186 76t-73 202q0 125 73 201t186 76t186 -76t73 -201zM424 267q0 79 -34.5 123.5t-89.5 44.5q-54 0 -89 -45t-35 -123q0 -79 35 -124t89 -45t89 45t35 124zM448 585h-95l-53 97l-53 -97h-95l91 171h114z" />
<glyph unicode="&#xf5;" horiz-adv-x="600" d="M559 267q0 -126 -73 -202t-186 -76t-186 76t-73 202q0 125 73 201t186 76t186 -76t73 -201zM424 267q0 79 -34.5 123.5t-89.5 44.5q-54 0 -89 -45t-35 -123q0 -79 35 -124t89 -45t89 45t35 124zM486 732q0 -51 -36 -87t-87 -36q-49 0 -86 35l-13 13q-10 11 -27 11 t-28.5 -11.5t-11.5 -28.5h-83q0 51 36 87t87 36t86 -35l13 -13q10 -11 27 -11t28.5 12t11.5 28h83z" />
<glyph unicode="&#xf6;" horiz-adv-x="600" d="M450 617h-113v122h113v-122zM263 617h-113v122h113v-122zM559 267q0 -126 -73 -202t-186 -76t-186 76t-73 202q0 125 73 201t186 76t186 -76t73 -201zM424 267q0 79 -34.5 123.5t-89.5 44.5q-54 0 -89 -45t-35 -123q0 -79 35 -124t89 -45t89 45t35 124z" />
<glyph unicode="&#xf8;" horiz-adv-x="600" d="M559 267q0 -126 -73 -202t-186 -76q-62 0 -117 25l-32 -51h-83l57 91q-84 78 -84 213q0 125 73 201t186 76q66 0 117 -25l32 51h83l-57 -91q84 -78 84 -212zM355 421q-25 14 -55 14q-54 0 -89 -45t-35 -123q0 -58 20 -100zM424 267q0 59 -20 99l-159 -253q24 -15 55 -15 q54 0 89 45t35 124z" />
<glyph unicode="&#xf9;" d="M570 0h-126v82q-18 -42 -62 -67.5t-104 -25.5q-88 0 -142.5 57.5t-54.5 153.5v333h130v-314q0 -121 104 -121q57 0 91.5 42.5t34.5 126.5v266h129v-533zM391 585h-73l-146 171h148z" />
<glyph unicode="&#xfa;" d="M470 756l-146 -171h-73l72 171h147zM570 0h-126v82q-18 -42 -62 -67.5t-104 -25.5q-88 0 -142.5 57.5t-54.5 153.5v333h130v-314q0 -121 104 -121q57 0 91.5 42.5t34.5 126.5v266h129v-533z" />
<glyph unicode="&#xfb;" d="M570 0h-126v82q-18 -42 -62 -67.5t-104 -25.5q-88 0 -142.5 57.5t-54.5 153.5v333h130v-314q0 -121 104 -121q57 0 91.5 42.5t34.5 126.5v266h129v-533zM474 585h-95l-53 97l-53 -97h-95l91 171h114z" />
<glyph unicode="&#xfc;" d="M474 617h-113v122h113v-122zM287 617h-113v122h113v-122zM570 0h-126v82q-18 -42 -62 -67.5t-104 -25.5q-88 0 -142.5 57.5t-54.5 153.5v333h130v-314q0 -121 104 -121q57 0 91.5 42.5t34.5 126.5v266h129v-533z" />
<glyph unicode="&#xfd;" horiz-adv-x="564" d="M417 756l-145 -171h-73l71 171h147zM564 533l-253 -634q-14 -35 -52.5 -63.5t-101.5 -28.5q-53 0 -94 12v103q31 -11 58 -11q51 0 64 30q6 2 26 55l-211 537h143l136 -397l143 397h142z" />
<glyph unicode="&#xfe;" horiz-adv-x="643" d="M602 272q0 -127 -69 -205t-166 -78q-46 0 -91.5 23t-64.5 58v-255h-130v926h130v-269q19 37 64.5 60.5t91.5 23.5q97 0 166 -78t69 -206zM467 272q0 82 -36 128t-92 46q-55 0 -91.5 -46t-36.5 -128t36.5 -128t91.5 -46t91.5 46t36.5 128z" />
<glyph unicode="&#xff;" horiz-adv-x="564" d="M431 617h-113v122h113v-122zM244 617h-113v122h113v-122zM564 533l-253 -634q-14 -35 -52.5 -63.5t-101.5 -28.5q-53 0 -94 12v103q31 -11 58 -11q51 0 64 30q6 2 26 55l-211 537h143l136 -397l143 397h142z" />
<glyph unicode="&#x152;" horiz-adv-x="1044" d="M989 0h-409v69q-77 -80 -195 -80q-152 0 -246.5 105t-94.5 276q0 172 94.5 277t246.5 105q119 0 195 -81v70h401v-117h-261v-193h254v-117h-254v-197h269v-117zM580 370q0 122 -55.5 193.5t-139.5 71.5q-85 0 -139.5 -71t-54.5 -194q0 -122 54.5 -193t139.5 -71 q84 0 139.5 71.5t55.5 192.5z" />
<glyph unicode="&#x153;" horiz-adv-x="954" d="M923 231h-361q9 -62 48 -100t97 -38q67 0 108 41l75 -75q-79 -70 -190 -70q-133 0 -206 95q-68 -95 -194 -95q-113 0 -186 76t-73 202q0 125 73 201t186 76q60 0 110 -24t81 -67q64 91 185 91q109 0 178 -74.5t69 -212.5v-26zM787 324q-9 56 -36.5 88t-72.5 32 q-44 0 -74.5 -32.5t-39.5 -87.5h223zM424 267q0 79 -34.5 123.5t-89.5 44.5q-54 0 -89 -45t-35 -123q0 -79 35 -124t89 -45t89 45t35 124z" />
<glyph unicode="&#x178;" horiz-adv-x="616" d="M458 791h-113v122h113v-122zM271 791h-113v122h113v-122zM647 741l-269 -420v-321h-141v321l-268 420h175l164 -281l163 281h176z" />
<glyph unicode="&#x2c6;" horiz-adv-x="333" d="M314 585h-94l-53 97l-53 -97h-95l91 171h113z" />
<glyph unicode="&#x2dc;" horiz-adv-x="423" d="M398 732q0 -51 -36 -87t-87 -36t-86 35l-13 13q-11 11 -28 11q-16 0 -28 -12t-12 -28h-83q0 51 36 87t87 36q52 0 86 -35l13 -13q11 -11 28 -11t28.5 12t11.5 28h83z" />
<glyph unicode="&#x2000;" horiz-adv-x="477" />
<glyph unicode="&#x2001;" horiz-adv-x="954" />
<glyph unicode="&#x2002;" horiz-adv-x="477" />
<glyph unicode="&#x2003;" horiz-adv-x="954" />
<glyph unicode="&#x2004;" horiz-adv-x="318" />
<glyph unicode="&#x2005;" horiz-adv-x="238" />
<glyph unicode="&#x2006;" horiz-adv-x="159" />
<glyph unicode="&#x2007;" horiz-adv-x="159" />
<glyph unicode="&#x2008;" horiz-adv-x="119" />
<glyph unicode="&#x2009;" horiz-adv-x="190" />
<glyph unicode="&#x200a;" horiz-adv-x="53" />
<glyph unicode="&#x2010;" horiz-adv-x="344" d="M300 231h-256v93h256v-93z" />
<glyph unicode="&#x2011;" horiz-adv-x="344" d="M300 231h-256v93h256v-93z" />
<glyph unicode="&#x2013;" d="M607 231h-563v93h563v-93z" />
<glyph unicode="&#x2014;" horiz-adv-x="952" d="M907 231h-863v93h863v-93z" />
<glyph unicode="&#x2018;" horiz-adv-x="289" d="M218 741l-31 -248h-143l95 248h79z" />
<glyph unicode="&#x2019;" horiz-adv-x="289" d="M244 741l-94 -248h-79l31 248h142z" />
<glyph unicode="&#x201a;" horiz-adv-x="285" d="M237 135l-95 -248h-79l31 248h143z" />
<glyph unicode="&#x201c;" horiz-adv-x="489" d="M218 741l-31 -248h-143l95 248h79zM422 741l-31 -248h-143l95 248h79z" />
<glyph unicode="&#x201d;" horiz-adv-x="489" d="M241 741l-95 -248h-79l31 248h143zM444 741l-94 -248h-79l31 248h142z" />
<glyph unicode="&#x201e;" horiz-adv-x="489" d="M237 135l-95 -248h-79l31 248h143zM441 135l-95 -248h-79l31 248h143z" />
<glyph unicode="&#x2022;" horiz-adv-x="315" d="M252 296q0 -39 -27.5 -66.5t-67.5 -27.5q-39 0 -66.5 27.5t-27.5 66.5t27.5 67t66.5 28q40 0 67.5 -28t27.5 -67z" />
<glyph unicode="&#x2026;" horiz-adv-x="711" d="M215 0h-141v135h141v-135zM426 0h-141v135h141v-135zM637 0h-141v135h141v-135z" />
<glyph unicode="&#x202f;" horiz-adv-x="190" />
<glyph unicode="&#x2039;" horiz-adv-x="326" d="M288 89h-129l-103 207l103 208h129l-104 -208z" />
<glyph unicode="&#x203a;" horiz-adv-x="326" d="M270 296l-103 -207h-129l103 207l-103 208h129z" />
<glyph unicode="&#x205f;" horiz-adv-x="238" />
<glyph unicode="&#x20ac;" horiz-adv-x="665" d="M647 78q-87 -89 -232 -89q-137 0 -230.5 79t-117.5 213h-74v63h67q-1 9 -1 26q0 18 1 26h-67v63h74q24 135 117.5 214t230.5 79q143 0 232 -89l-84 -84q-56 56 -144 56q-74 0 -129 -46.5t-74 -129.5h275v-63h-285v-26v-26h285v-63h-275q19 -82 74 -128.5t129 -46.5 q88 0 144 56z" />
<glyph unicode="&#x2122;" horiz-adv-x="446" d="M400 556h-47v121l-37 -121h-43l-36 121v-121h-47v185h71l34 -113l34 113h71v-185zM171 700h-50v-144h-50v144h-51v41h151v-41z" />
</font>
</defs>
</svg>
